/* XPM */
static char *result[] = {
/* columns rows colors chars-per-pixel */
"64 64 243 2 ",
"   c black",
".  c #0B0B09",
"X  c #080206",
"o  c #170104",
"O  c #02001D",
"+  c #1B1915",
"@  c #1A0719",
"#  c #280402",
"$  c #390302",
"%  c #2D1218",
"&  c #22241D",
"*  c #3A241D",
"=  c #05002A",
"-  c #15012B",
";  c #0D0132",
":  c #000032",
">  c #110032",
",  c #2C2D25",
"<  c #292728",
"1  c #2E3527",
"2  c #39362C",
"3  c #242635",
"4  c #3A3B34",
"5  c #3C2628",
"6  c #290C22",
"7  c #410500",
"8  c #480705",
"9  c #5C0700",
"0  c #550604",
"q  c #5D160E",
"w  c #51170A",
"e  c #42051A",
"r  c #57031C",
"t  c #5A1E14",
"y  c #421E16",
"u  c #6E0600",
"i  c #660A02",
"p  c #6C0800",
"a  c #660306",
"s  c #730600",
"d  c #7D0400",
"f  c #750806",
"g  c #63140B",
"h  c #6C140A",
"j  c #77120C",
"k  c #6A041C",
"l  c #76021C",
"z  c #681A16",
"x  c #7D1914",
"c  c #4C261D",
"v  c #40261D",
"b  c #5E241D",
"n  c #7A261B",
"m  c #6E2F0E",
"M  c #4B062A",
"N  c #53062A",
"B  c #59072B",
"V  c #4D0632",
"C  c #400532",
"Z  c #510532",
"A  c #68002A",
"S  c #630032",
"D  c #6A0032",
"F  c #72092E",
"G  c #482C24",
"H  c #47382A",
"J  c #58362A",
"K  c #473D32",
"L  c #582F2C",
"P  c #762722",
"I  c #662E36",
"U  c #65352D",
"Y  c #3D4D34",
"T  c #347030",
"R  c #7B4919",
"E  c #59463B",
"W  c #4D4531",
"Q  c #694637",
"!  c #6F4A2A",
"~  c #417734",
"^  c #406534",
"/  c #6A7531",
"(  c #010040",
")  c #000049",
"_  c #080040",
"`  c #2B294A",
"'  c #37294C",
"]  c #2E314C",
"[  c #00006C",
"{  c #0D016C",
"}  c #15016C",
"|  c #010175",
" . c #0C0577",
".. c #150175",
"X. c #2A026C",
"o. c #3A006C",
"O. c #37016C",
"+. c #2D0276",
"@. c #2E0978",
"#. c #400549",
"$. c #440540",
"%. c #540040",
"&. c #580042",
"*. c #54155D",
"=. c #6C0049",
"-. c #6C0040",
";. c #740040",
":. c #433559",
">. c #4A006C",
",. c #46006C",
"<. c #4B0576",
"1. c #4A0975",
"2. c #653C44",
"3. c #4A4C48",
"4. c #575956",
"5. c #564F4D",
"6. c #654B48",
"7. c #654843",
"8. c #774B48",
"9. c #6C5751",
"0. c #5F605E",
"q. c #65615F",
"w. c #636563",
"e. c #6B6C6B",
"r. c #777676",
"t. c #840200",
"y. c #8B0200",
"u. c #830208",
"i. c #890409",
"p. c #930100",
"a. c #9C0100",
"s. c #970309",
"d. c #89011B",
"f. c #980018",
"g. c #811B16",
"h. c #841D19",
"j. c #881916",
"k. c #971111",
"l. c #A30100",
"z. c #AC0000",
"x. c #A7070A",
"c. c #B40000",
"v. c #BC0000",
"b. c #B70309",
"n. c #B9001A",
"m. c #B81718",
"M. c #A40D17",
"N. c #88221E",
"B. c #8E3A11",
"V. c #8B032A",
"C. c #830032",
"Z. c #9B0032",
"A. c #970E33",
"S. c #A5022B",
"D. c #A70931",
"F. c #8A2421",
"G. c #932927",
"H. c #963836",
"J. c #913832",
"K. c #B92121",
"L. c #AC3534",
"P. c #C30000",
"I. c #CB0000",
"U. c #C90D0C",
"Y. c #D40000",
"T. c #DC0000",
"R. c #D70609",
"E. c #D01818",
"W. c #C53131",
"Q. c #C01C33",
"!. c #884118",
"~. c #A24515",
"^. c #85423C",
"/. c #894928",
"(. c #AA4C34",
"). c #880445",
"_. c #A03D44",
"`. c #9F2C4B",
"'. c #864744",
"]. c #974844",
"[. c #8C5359",
"{. c #B44949",
"}. c #AF4F50",
"|. c #9F6349",
" X c #BA6656",
".X c #95497C",
"XX c #AC566C",
"oX c #A96866",
"OX c #B56A6D",
"+X c #957374",
"@X c #C15A5B",
"#X c #C4695D",
"$X c #C46869",
"%X c #D27476",
"&X c #C45761",
"*X c #489939",
"=X c #468A37",
"-X c #4AA239",
";X c #010083",
":X c #00008B",
">X c #1C0486",
",X c #010096",
"<X c #01019E",
"1X c #0C079B",
"2X c #130196",
"3X c #1C0096",
"4X c #16009E",
"5X c #1C009E",
"6X c #101190",
"7X c #1B1C82",
"8X c #250083",
"9X c #2A008B",
"0X c #270086",
"qX c #360086",
"wX c #220497",
"eX c #2F1987",
"rX c #132996",
"tX c #0301AD",
"yX c #0900AD",
"uX c #0707A4",
"iX c #0000B5",
"pX c #0A06B2",
"aX c #120CAA",
"sX c #3A1FA3",
"dX c #3B22A5",
"fX c #242399",
"gX c #4E1688",
"hX c #4C2BA0",
"jX c #5D5CA6",
"kX c #6B6497",
"lX c #8E4F8D",
"zX c #817F81",
"xX c #AE7582",
"cX c #A55D88",
"vX c #848484",
"bX c #888788",
"nX c #8E8D8E",
"mX c #999799",
"MX c #9C9A9C",
"NX c #949394",
"BX c #A6999B",
"VX c #DBBCBC",
"CX c black",
/* pixels */
"CXCXCXCXCXCXCXCXCXCXCXCXCXCXCXCXCXCXCXCXCXCXCXCXCXCXCXCXCXCXCXCXCXCXCXCXCXCXCXCXCXCXCXCXCXCXCXCXCXCXCXCXCXCXCXCXCXCXCXCXCXCXCXCX",
"CXCXCXCXCXCXCXCXCXCXCXCXCXCXCXCXCXCXCXCXCXCXCXCXCXCXCXCXCXCXCXCXCXCXCXCXCXCXCXCXCXCXCXCXCXCXCXCXCXCXCXCXCXCXCXCXCXCXCXCXCXCXCXCX",
"CXCXCXCXCXCXCXCXCXCXCXCXCXCXCXCXCXCXCXCXCXCXCXCXCXCXCXCXCXCXCXCXCXCXCXCXCXCXCXCXCXCXCXCXCXCXCXCXCXCXCXCXCXCXCXCXCXCXCXCXCXCXCXCX",
"CXCXCXCXCXCXCXCXCXCXCXCXCXCXCXCXCXCXCXCXCXCXCXCXCXCXCXCXCXCXCXCXCXCXCXCXCXCXCXCXCXCXCXCXCXCXCXCXCXCXCXCXCXCXCXCXCXCXCXCXCXCXCXCX",
"CXCXCXCXCXCXCXCXCXCXCXCXCXCXCXCXCXCXCXCXCXCXCXCXCXCXCXCXCXCXCXCXCXCXCXCXCXCXCXCXCXCXCXCXCXCXCXCXCXCXCXCXCXCXCXCXCXCXCXCXCXCXCXCX",
"CXCXCXCXCXCXCXCXCXCXCXCXCXCXCXCXCXCXCXCXCXCXCXCXCXCXCXCXCXCXCXCXCXCXCXCXCXCXCXCXCXCXCXCXCXCXCXCXCXCXCXCXCXCXCXCXCXCXCXCXCXCXCXCX",
"CXCXCXCXCXCXCXCXCXCXCXCXCXCXCXCXCXCXCXCXCXCXCXCXCXCXCXCXCXCXCXCXCXCXCXCXCXCXCXCXCXCXCXCXCXCXCXCXCXCXCXCXCXCXCXCXCXCXCXCXCXCXCXCX",
"CXCXCXCXCXCXCXCXCXCXCXCXCXCXCXCXCXCXCXCXCXCXCXCXCXCXCXCXCXCXCXCXCXCXCXCXCXCXCXCXCXCXCXCXCXCXCXCXCXCXCXCXCXCXCXCXCXCXCXCXCXCXCXCX",
"CXCXCXCXCXCXCXCXCXCXCXCXCXCXCXCXCXCXCXCXCXCXCXCXCXCXCXCXCXCXCXCXCXCXCXCXCXCXCXCXCXCXCXCXCXCXCXCXCXCXCXCXCXCXCXCXCXCXCXCXCXCXCXCX",
"CXCXCXCXCXCXCXCXCXCXCXCXCXCXCXCXCXCXCXCXCXCXCXCXCXCXCXCXCXCXCXCXCXCXCXCXCXCXCXCXCXCXCXCXCXCXCXCXCXCXCXCXCXCXCXCXCXCXCXCXCXCXCXCX",
"CXCXCXCXCXCXCXCXCXCXCXCXCXCXCXCXCXCXCXCXCXCXCXCXCXCXCXCXCXCXCXCXCXCXCXCXCXCXCXCXCXCXCXCXCXCXCXCXCXCXCXCXCXCXCXCXCXCXCXCXCXCXCXCX",
"CXCXCXCXCXCXCXCXCXCXCXCXCXCXCXCXCXCXCXCXCXCXCXCXCXCXCXCXCXCXCXCXCXCXCXCXCXCXCXCXCXCXCXCXCXCXCXCXCXCXCXCXCXCXCXCXCXCXCXCXCXCXCXCX",
"CXCXCXCXCXCXCXCXCXCXCXCXCXCXCXCXCXCXCXCXCXCXCXCXCXCXCXCXCXCXCXCXCXCXCXCXCXCXCXCXCXCXCXCXCXCXCXCXCXCXCXCXCXCXCXCXCXCXCXCXCXCXCXCX",
"CXCXCXCXCXCXCXCXCXCXCXCXCXCXCXCXCXCXCXCXCXCXCXCXCXCXCXCXCXCXCXCXCXCXCXCXCXCXCXCXCXCXCXCXCXCXCXCXCXCXCXCXCXCXCXCXCXCXCXCXCXCXCXCX",
"CXCXCXCXCXCXCXCXCXCXCXCXCXCXCXCXCXCXCXCXCXCXCXCXCXCXCXCXCXCXCXCXCXCXCXCXCXCXCXCXCXCXCXCXCXCXCXCXCXCXCXCXCXCXCXCXCXCXCXCXCXCXCXCX",
"CXCXCXCXCXCXCXCXCXCXCXCXCXCXCXCXCXCXCXCXCXCXCXCXCXCXCXCXCXCXCXCXCXCXCXCXCXCXCXCXCXCXCXCXCXCXCXCXCXCXCXCXCXCXCXCXCXCXCXCXCXCXCXCX",
"CXCXCXCXCXCXCXCXCXCXCXCXCXCXCXCXCXCXCXCXCXCXCXCXCXCXCXCXCXCXCXCXCXCXCXCXCXCXCXCXCXCXCXCXCXCXCXCXCXCXCXCXCXCXCXCXCXCXCXCXCXCXCXCX",
"CXCXCXCXCXCXCXCXCXCXCXCXCXCXCXCXCXCXCXCXCXCXCXCXCXCXCXCXCXCXCXCXCXCXCXCXCXCXCXCXCXCXCXCXCXCXCXCXCXCXCXCXCXCXCXCXCXCXCXCXCXCXCXCX",
"CXCXCXCXCXCXCXCXCXCXCXCXCXCXCXCXCXCXCXCXCXCXCXCXCXCXCXCXCXCXCXCXCXCXCXCXCXCXCXCXCXCXCXCXCXCXCXCXCXCXCXCXCXCXCXCXCXCXCXCXCXCXCXCX",
"CXCXCXCXCXCXCXCXCXCXCXCXCXCXCXCXCXCXCXCXCXCXCXCXCXCXCXCXCXCXCXCXCXCXCXCXCXCXCXCXCXCXCXCXCXCXCXCXCXCXCXCXCXCXCXCXCXCXCXCXCXCXCXCX",
"CXCXCXCXCXCXCXCXCXCXCXCXCXCXCXCXCXCXCXCXCXCXCXCXCXCXCXCXCXCXCXCXCXCXCXCXCXCXCXCXCXCXCXCXCXCXCXCXCXCXCXCXCXCXCXCXCXCXCXCXCXCXCXCX",
"CXCXCXCXCXCXCXCXCXCXCXCXCXCXCXCXCXCXCXCXCXCXCXCXCXCXCXCXCXCXCXCXCXCXCXCXCXCXCXCXCXCXCXCXCXCXCXCXCXCXCXCXCXCXCXCXCXCXCXCXCXCXCXCX",
"CXCXCXCXCXCXCXCXCXCXCXCXCXCXCXCXCXCXCXCXCXCXCXCXCXCXCXCXCXCXCXCXCXCXCXCXCXCXCXCXCXCXCXCXCXCXCXCXCXCXCXCXCXCXCXCXCXCXCXCXCXCXCXCX",
"CXCXCXCXCXCXCXCXCXCXCXCXCXCXCXCXCXCXCXCXCXCXCXCXCXCXCXCXCXCXCXCXCXCXCXCXCXCXCXCXCXCXCXCXCXCXCXCXCXCXCXCXCXCXCXCXCXCXCXCXCXCXCXCX",
"CXCXCXCXCXCXCXCXCXCXCXCXCXCXCXCXCXCXCXCXCXCXCXCXCXCXCXCXCXCXCXCXCXCXCXCXCXCXCXCXCXCXCXCXCXCXCXCXCXCXCXCXCXCXCXCXCXCXCXCXCXCXCXCX",
"CXCXCXCXCXCXCXCXCXCXCXCXCXCXCXCXCXCXCXCXCXCXCXCXCXCXCXCXCXCXCXCXCXCXCXCXCXCXCXCXCXCXCXCXCXCXCXCXCXCXCXCXCXCXCXCXCXCXCXCXCXCXCXCX",
"CXCXCXCXCXCXCXCXCXCXCXCXCXCXCXCXw.5.CXCXCXCXCXCXCXCXCXCXCXCXCXCXCXCXCXCXCXCXCXCXCXCXCXCXCXCXCXCXCXCXCXCXCXCXCXCXCXCXCXCXCXCXCXCX",
"CXCXCXCXCXCXCXCXCXCXCXCXCXCXCXCXw.4.CXCXCXCXCXCXCXCXCXCXCXCXCXCXCXCXCXCXCXCXCXCXCXCXCXCXCXCXCXCXCXCXCXCXCXCXCXCXCXCXCXCXCXCXCXCX",
"CXCXCXCXCXCXCXCXCXCXCXCXCXCXCXCXw.4.CXCXCXCXCXCXCXCXCXCXCXCXCXCXCXCXCXCXCXCXCXCXCXCXCXCXCXCXCXCXCXCXCXCXCXCXCXCXCXCXCXCXCXCXCXCX",
"CXCXCXCXCXCXCXCXCXCXCXCXCXCXCXCXw.e.bXCXCXCXCXCXCXCXCXCXCXCXCXCXCXCXCXCXCXCXCXCXCXCXCXCXCXCXCXCXCXCXCXCXCXCXCXCXCXCXCXCXCXCXCXCX",
"CXCXCXCXCXCXCXCXCXCXCXCXCXCXCXCXw.e.nXzXCXCXCXCX4.CXCXCXCXCXCXCXCXCXCXCXCXCXCXCXCXCXCXCXCXCXCXCXCXCXCXCXCXCXCXCXCXCXCXCXCXCXCXCX",
"CXCXCXCXCXCXCXCXCXCXCXCXCXCXCXCX4.4.e.nXCXCXCXe.4.CXCXCXCXCXCXCXCXCXCXCXCXCXCXCXCXCXCXCXCXCXCXCXCXCXCXCXCXCXCXCXCXCXCXCXCXCXCXCX",
"CXCXCXCXCXCXCXCXCXCXCXCXCXCXCXCX, 3.e.nXMXNXe.e.zXCXCXCXCXCXCXCXCXCXCXCXCXCXCXCXCXCXCXCXCXCXCXr.NXe.MXvX4.CXCXCXCXCXCXCXCXCXCXCX",
"CXCXCXCXCXCXCXCXCXCXCXCXCXCXCXCXCX4.4.e.nXMXNXr.r.[.CXCXCXCXY.T.T.R.W.T.I.a.z.CXCXCXCXCXCXCXMXMXvXe.r.0.e.CXCXCXCXCXCXCXCXCXCXCX",
"CXCXCXCXCXCXCXCXCXCXCXCXCXCXCXCXCX, 4 0.e.NXMXMXNXW.v.T.Y.v.P.I.T.T.Y.T.P.z.y.a.z.P.R.L.r.MXMXvXw.0.4 , & CXCXCXCXCXCXCXCXCXCXCX",
"CXCXCXCXCXCXCXCXCXCXCXCXe.r.CXCXCXCXG Y w.e.nXnXBXVXv.T.P.Y.v.a.T.T.v.T.I.c.a.P.T.T.K.MXMXMXvXw.w.3.& CXCXCXCXCXCXCXCXCXCXCXCXCX",
"CXCXCXCXCXCXCXCXCXCXCXCX3.4.CXCXCXCXi.U w.w.w.e.mXnXI.T.I.c.l.a.v.Y.P.Y.z.c.z.Y.T.T.m.MXnXvXw.w.4.c CXCXCXCXCXCXCXCXCXCXCXCXCXCX",
"CXCXCXCXCXCXCXCXCXCXCXCXCXe.mXw.CXM.v.M.4.0.w.w.e.+XP.Y.v.P.Y.v.v.I.Y.P.a.c.a.c.Y.T.E.bXw.w.w.w.6.l.l.CXCXr.bXCXCXCXCXCXCXCXCXCX",
"CXCXCXCXCXCXCXCXCXCXCXCXCX4.nXbXr.9.K.c.U 8.'.8.8.H.P.v.P.T.Y.I.l.t.a.t.z.v.v.l.P.P.b.6.6.6.6.7.b P.L.e.MXnXvX4 CXCXCXCXCXCXCXCX",
"CXCXCXCXCXCXCXCXCXCXCXCXCXCX4.0.bXq.^.Y.l.p.P.z.z.P.a.v.T.T.v.v.p.p p s a.v.Y.T.Y.l.y.s p p p u a.U.6.e.vX4.3.CXCXCXCXCXCXCXCXCX",
"CXCXCXCXCXCXCXCXCXCXCXCXCXCXb U '.H.T.Y.p.y.y.y.s.l.c.P.Y.T.T.Y.a.s u d c.v.P.Y.T.Y.z.y.p i p u a.v.h 7.7.G c CXCXCXCXCXCXCXCXCX",
"CXCXCXCXCXCXCXCXCXCXCXCXCXCXz.c.P.I.Y.P.x.d t.y.l.x.c.P.v.Y.Y.I.a.y.u y.c.T.P.c.I.I.l.d p N.N.j.K.m.x u s d l.CXCXCXCXCXCXCXCXCX",
"CXCXCXCXCXCXCXCXCXCXCXCXv.z.p.v.I.l.c.s.x p u j j j.t.p.z.z.c.c.c.s.q g y.c.t.y.y.s.t.i n }. X|.#X%X{.g.y.y.x.Y.z.CXCXCXCXCXCXCX",
"CXCXCXCXCXCXCXCXCXCXCXCXI.z.l.z.v.Y.c.a.p u j F.F.G.j t.a.l.m.v.z.f G H g u y.p.d u u z [.(.R / ~.#X%X{.k.p.y.c.I.l.CXCXCXCXCXCX",
"CXCXCXCXCXCXCXCXCXCXCXp.z.a.Y.a.c.P.l.t.j f N.N.N.H.k.y.P.R.W.Y.p.q t 3.2 h v.y.p.0 g N.^.m 2 z F.~.#X].H.z.v.y.l.z.p.CXCXCXCXCX",
"CXCXCXCXCXCXCXCXCXCXt.y.l.p.I.z.l.t.d s N.j N.i q g y.z.I.v.v.b.i Y K 4.G G w # 9 + K 8.1 . ` + E /.^.J c s a.d t.t.t.u CXCXCXCX",
"CXCXCXCXCXCXCXCXCXp p u t.y.s.t.d p j j.N.N.x b J G u t.d p u i.t H F.U z G v 8 N g G G < ) 1XW J.Q W m u t.T.c.d p p 9 CXCXCXCX",
"CXCXCXCXCXCXCXCXCXs p p p u p u j h.G.H.g.x h 5.b P q q q z h.P < ' k.}.j.j 8 6 1.t.u i ) iXuX' |.m * # u l.T.T.c.d p f s CXCXCX",
"CXCXCXCXCXCXCXCXCXa.t.u p u x j G.{.G.F.J.t N.E * 4 2 , W 8.}.I ) 2Xj S ;.[.L L.{.D.l.V.pX<.wXaXkX; M N s c.I.T.I.l.s t.d CXCXCX",
"CXCXCXCXCXCXCXv.b.Z.F V N j L.F.G.{.J.g W 8.@X$XQ 5 * + 9.OX X4.+.,.B iXaXlXlXcXxXgXD.Q.<.S.V.iXiXiXiX2Xu t.p.P.l.y.p.l.a.CXCXCX",
"CXCXCXCXCXP.R.Z.=.tX;X8X+.Z h.N.G.H.g W (.%X$X^.2 + b Q OX4.m c s s.#.iXpXpXsXhXcXlXgX.XD.4X&.iX>XyX>XuXV N A y.y.t.d s t.CXCXCX",
"CXCXCXCXCXx.).9XiXuX> S Z } p i x g 8 E #XoX^.& H W 6.].9.7.G Z S #.iXpXpXgX&XkXyX<.A.wX`.iXiX4X*.2Xl 8X>X>X..S S M 0 S M CXCXCX",
"CXCXCXu.0 _ >.f.iXiXiXpXfX; 8 0 9 . . H !., * + W (.$XU (.lX#.tX2XyXqXqX4XV.V.iX5X).lXgXn.yXqX9XyX+.B u.N 0 : ,XyX..) iX2Xd CXCX",
"CXCXCXd $.o.x.=.iXyX9XeXjXuX= $ b < . K J.# g G ! %X#Xm % tX:X3Xk 5XV.n.qX4X*.iXyXqXgX.X).wXc.f.o.l wXn.4X$.X.O O.A iXpX+.A 9 CX",
"CXCXCX&.} d -.>XyX>.x.*.yXwXwXx.2.: . * !.s p p B.{.}.2 @ ,X@ wXn.8X>.v.n.8X0XqX<.S.).pXyX>.z.l.i.=.wXM.0XO.a - p.f.9X2Xk 2X0 CX",
"CXCXCX<X- N 1X#.3Xs.=.tX@.*.5XC.F o.# & 7.9 p g J }.OX` r ,.l >.c.s.C.V.z.i.F v.f.9XiXyX,.T.s.A r ;XO.s d i e } y.z.f.o.#.2X9 CX",
"CXCXCX:X,XO tX,X2XB iX1Xz 6X6XqX5XZ.F H n # 0 h ! {.[.[ o S.P.s.B f.0Xo.l.l 3Xs i.-.;Xo.y.b.&.X.# # V a V 7   ; B t.t.d.;X} p 9 ",
"CXCXCX) <X( | :  .$.iX@.! Y E G.6XiX1XK m 9 # w / {.Q $ 6 >.l.d.o.y.y.u.D =.2Xs l | - a.f S O.t.a % | : | : ) tX .N i 7 = X p $ ",
"CXCXiXiXiXuX) uX) tX7XT -X-X-X*X' 6X7XE 5 V C - P L.B.v.Z.l.$ s.A u.S &.>X8X+.N 0 ( } p.r X.u.d 8 : ) <X) iXiX<X) 1XC ) ,XX $   ",
"iXiXtX6X6X6X6XpXiX1XY -X-X=X-X~ 4 4 :.OX5 dXdXeX* R * l 2X0 0 : X.k +.X.p a %.| ( | > C ; V V C ) iXiXiXiXiXiXiXiXtX;X;X[       ",
";X;X .` ` ] ] rXrX1X1 T ~ 1 ~ 1 2 3 7X].#XoX X].(.E o %.| ; $. .N t.a i 8 % 1XO <X) iXiXiXiXiXiXiXiXiXiXiXtX;X;X;X[           CX",
"CXCXCX:X;X .1 T T  .  . 1 X & . 1 . , K I ' I ' I I ) uX) iX<X( { 7 X 7   O <X) iXiXiXiXiXiXiXiXtX;X;X;X;X[                   CX",
"CXCXCXCXCXCX    . &   X &     . &   . 3 6X6XiXiXiXtX;X;X;X;X;X[         CXCX;X;X:XiXiXiXiXtX;X;X[                           CXCX",
"CXCXCXCXCXCXCXCXCXCXCXCXCXCXCXCXCXCXCXX < 3 ;X;X;X[             CXCXCXCXCXCXCXCXCX;X;X;X;X[         CXCXCXCXCXCXCXCXCXCXCXCXCXCX"
};
