/* XPM */
static char *_586d606b45e4ffbc67f36bd5d7f4d5ek6cP9mNhPoe2NVO5[] = {
/* columns rows colors chars-per-pixel */
"64 65 16 1 ",
"  c black",
". c black",
"X c #393C31",
"o c #6B0800",
"O c #636563",
"+ c #8C0000",
"@ c #B50000",
"# c #8C2421",
"$ c #DE0000",
"% c #9C4100",
"& c #B5494A",
"* c #D6797B",
"= c #4AA239",
"- c #0000B5",
"; c #9C9A9C",
": c white",
/* pixels */
"                                                                ",
"     O            O                          O            O     ",
"     OO          OO                          OO          OO     ",
"     OO          OO                          OO          OO     ",
"     OOO        OO;                          ;OO        OOO     ",
"      OO        O;;                          ;;O        OO      ",
"      OO;       O;;                          ;;O       ;OO      ",
"      OOO;      O;;O                        ;;;O      ;OOO      ",
"       OOO;     O;;;                        ;;OO     ;;OO       ",
"       OOO;;    XO;;;       @$$$$$$@       O;;OO    ;OOOO       ",
"        OOO;;O  XOO;;O    @$@$$$$$$@$@    ;;;;XX  O;;;OX        ",
"        XOOO;;; XXX++@@@@$$@@$$&$$$@@$@@@+@++XXX ;;;OOOX        ",
"         XOOO;;;O+++@$$$+@$$$$$*&&$$$$$+$$$@+++;;;;OOOX         ",
"         XOOO;;;;;;@@@$$@@$$$$$*$$$$$$@@$$@@@O;;;;;OOXO         ",
";;        XOOO;;:;:;@@@$$@$$$$$$$$$$$$@$$@@+;::;;;OOOX        ;;",
" O;O       XOOOO;;;:;+$@$@@@@@$$$@@$@@@$@$@;:;;;OOOOX       O;O ",
"   O;;;;O@@@+XOOOOO;;@$@@++@$$@@@@$@@++@$$@;;OOOOOX+@@@OO;;;O   ",
"    OO;;;OO$@+XOOOOOO@$$@$@@+$$@$$$@@@$@@$@OOOOOOX@@$OO;;;;O    ",
"     OO;;;;O@@@$XOOO@$@@@$$@@+@@@@+@@$$$@@$$OOOX$@@@O;;;;OX     ",
"      XOO;OO$+++$@$@$@@+@@$$++o@oo++$$@@+@@@@@@@@++$OO;OXO      ",
"     @@XXOO$$++@+++++@@@$@@@+oooooo+@@@$@@@@+++@+++$$OXOX@@     ",
"    @@$$@@@$@$++++@@@@$$$$$@@+oooo+@@$$$$$@@@@+++@@@$$@@@$@@    ",
"    @@$$$+++@@$+#++++@@$$$$$$@+o++@@$$$$$@@++++#+$@@+++$$$@@    ",
"   @@@@@+@@+@++##ooo+++@@$$$$@$+@$@$$$$@@+++#oo##++@+@@+@@@@@   ",
"   @@$@o+@@$$$@#ooo####+++@@$@@+$$@$@@+++###oooo#@$$$@@++@$@@   ",
"  +++@+$$+@$$@######&&#o+#++@@++++@@++#+o#&&######@$$@+$@+@+++  ",
"  ooo++@$+@@@##&&o######oo#+++oooo+o+#oo######o&###@@@+$@++ooo  ",
"  +oooo+@o++#&#&&#o#&*&#o#o..XXXXXXX.o#o#&*&#%#&&&##++o@+oooo+  ",
"  +oooo++oo#&#&&&&#######oXX===XXX==XXo#######&&&&#&#oo++oooo+  ",
" @$@@ooooo#&#&&*&&####&&##&XX=XXXX=XX###&&#o##&&*&&#&##oooo+@$@ ",
" $$$@+ooo###&*&&**&&##o#####XXXXXXXX%#######&&**&&*&&##ooo+@$$$ ",
"@$$@@+oooo##&&&&&***&&&##&&#%#%&%&%##&&###&&****&&&&#oooooo@@$$@",
"@$@@+##oooo#&&&&*&*&*&&&##o#oooooooo#o##&&&&**&&&#&&#oooooo+@@$@",
"@@@+#&##XOoo###&&&&&***&*&&&###oo###&&&*&*:*&&&&&###o%OXoo+o+@@@",
"+++##&&oX;O%oo##&&&***&&&*****#o&#****&*&&***&&&##oooO;Xo+@+o+@o",
"o++#&&#o.OXO#o##&&&**&#&&&&***&#&&***&&&&##**&&&##o#OXO.o++@+o+o",
"ooo&#ooXXXX;Ooo###&&&&***&&**:*#*:***&&***&&&&###ooO;XX.oo++oooo",
"+ooooo+...XO;Ooo####&&****&****&**********&&####ooO;OX.oooooooo+",
"ooo+++@XX.XXO;O&#o##&&&*******&&&&*******&&&##o#&OOOX.o.oooooooo",
"@++@@@O;XX.XOOO#;Ooo##&&*&****&*##:***&*&&##ooO;#OOOXooo;O@+++++",
"+@@$@+O;#.XXXOXX;;#Ooo##&**&**#*##*&&**&##ooO#O;XXOXooo#;O++$@@+",
" @@$@$OOXoX.XXX.OOX;O###o#&#&*#&##&&&##o###O;OOO.-XXoo#XOO$@$@@ ",
" @@+@$@++oooXX.-XOO;O#o#######&#&&#######o#O;XOX..oo#oo++@$@@@@ ",
" %+@$$$$@OoOOX...XXOOXOXOO############OOXOXOOXXX-ooOO%O@$$$$++% ",
"  @+$$$$O;OO:#o--.-XXOOXO;O###&*&&###O;OXOOXX.-oo#%:OO;O$$$$+@  ",
"  @@++@$@;XO;Oooo-.--O;OOOX-O;OOOX;O-XOOX;O--oo##oO;OX;@$@++@@  ",
"  $@@+@@$++OO++ooo-.-;;OXXX-XOO;OOOX-XXXO:O-o##oo++OO++$@@+@@$  ",
"   @@+o@@$$++++++oo--;;;X-----XOXXX----X;;;oo#o+++++@$$@@+$@@   ",
"   @##&*&&++$$$@O;+++O;;OXXO;OO-XXO;OXXO;;O++@;O@$$$++@@$@@+@   ",
"   ++#&&*&#+@$$$$@O;@OO;;X@O;;++++;;O@X;;OO@;O@@$$$@##+$@++++   ",
"  ++o##&&&##+@$$$$@@++OOO+@O;O@$@@O;O@+OOOo@@@$$$$@#&&o$++oo++  ",
"  +o  ##&###++@$$$$$@ooo+@@@+@$$$$@+@@@+oo+@$$$$$+&&&#o@++  o+  ",
"  ++$  ####++@+@$$$$$@+o@@$$$$$$$$$$$$$+oo@$$$$$@#&&#o++o  $++  ",
"   +@@@o+@$$@++++@@@$$@+$$$@$$$$$$$$@$$$@@$$@@@@+###$$$oo@$@+   ",
"    +ooo$OO@$@+++++@@@$$@@@@$$@@$$$@@@@$$$@@@++o+#@$@OO$ooo+    ",
"        O;:O@$@+$$@++@@@@++++$$+$$@@+++@@@@++@$$@@$@X:;O        ",
"        O;OX+$@$$@++++@@++@+@@$+$$@@+@++@@++++$$@@$+OO;;        ",
"        OOOO+$@$@@++@+@+o$$@++@$@$++@$$o+@+@+++@$@$+XOOO        ",
"        OOOX$@+$+o ++o@@@$$ +++$++++ $$@@@o++ o@$+@$XOOO        ",
"        XOX ooo@@oo+o++@$@.+o++$+++o+.@$@++o+oo@@ooo.XOX.       ",
"      ...O......@++o..o+..+oo@o@@@ooo+..+o..o+@@......OO....    ",
"     ............@+o$..o@o+o.@+o@$@.oo++o..$+o@.............    ",
"     ..............o+@$@+oo..+..oo$..oo+@$@oo..............     ",
"       ..............oooooo@+o....o$+oooooo..............       ",
"              ............ooo......ooo..........                "
};
