/* XPM */
static char *result[] = {
/* columns rows colors chars-per-pixel */
"64 38 139 2 ",
"   c black",
".  c #0E0100",
"X  c #070806",
"o  c gray5",
"O  c #120000",
"+  c #120504",
"@  c #1D0000",
"#  c #140800",
"$  c #000017",
"%  c #32342B",
"&  c #3F352B",
"*  c #393C31",
"=  c #5D0700",
"-  c #5D0717",
";  c #6F0700",
":  c #650F06",
">  c #6B0800",
",  c #6F0C04",
"<  c #740700",
"1  c #7A0000",
"2  c #7A0700",
"3  c #710F00",
"4  c #671C07",
"5  c #6A140D",
"6  c #74100A",
"7  c #7A0017",
"8  c #7A1F1D",
"9  c #7A1F34",
"0  c #44342B",
"q  c #49342B",
"w  c #4E342B",
"e  c #463D2B",
"r  c #44392F",
"t  c #493E34",
"y  c #3E4137",
"u  c #3B4932",
"i  c #4D443B",
"p  c #323442",
"a  c #565856",
"s  c #645956",
"d  c #685856",
"f  c #685D5A",
"g  c #735856",
"h  c #5E605D",
"j  c #6A6056",
"k  c #56586E",
"l  c #636563",
"z  c #6E6160",
"x  c #6A6C6A",
"c  c #880100",
"v  c #8C0000",
"b  c #8C0504",
"n  c #810806",
"m  c #910000",
"M  c #970000",
"N  c #9E0000",
"B  c #91090A",
"V  c #9E0017",
"C  c #8C1F1D",
"Z  c #961010",
"A  c #AB0100",
"S  c #A50806",
"D  c #AA0D0D",
"F  c #B00000",
"G  c #B50000",
"H  c #B00504",
"J  c #BA0000",
"K  c #B21414",
"L  c #B91010",
"P  c #883900",
"I  c #963A00",
"U  c #88201D",
"Y  c #8E281D",
"T  c #A43900",
"R  c #812723",
"E  c #8C2421",
"W  c #872C29",
"Q  c #912926",
"!  c #C10000",
"~  c #CF0100",
"^  c #CE0D0D",
"/  c #D30000",
"(  c #D90000",
")  c #DE0000",
"_  c #D9090A",
"`  c #C10017",
"'  c #D51414",
"]  c #8F4006",
"[  c #9C4100",
"{  c #914D07",
"}  c #9F420A",
"|  c #A34810",
" . c #9E4040",
".. c #9E4058",
"X. c #A54747",
"o. c #AB4140",
"O. c #AA4D4D",
"+. c #B04040",
"@. c #B54040",
"#. c #B04445",
"$. c #BA4040",
"%. c #B24840",
"&. c #B5494A",
"*. c #B94F50",
"=. c #BA696B",
"-. c #C86A6B",
";. c #CC6E6F",
":. c #D7696B",
">. c #CF726B",
",. c #C27171",
"<. c #C77678",
"1. c #D27375",
"2. c #D6797B",
"3. c #489538",
"4. c #559532",
"5. c #58963B",
"6. c #4AA239",
"7. c #408D49",
"8. c #00009E",
"9. c #0E019E",
"0. c #12009E",
"q. c #17009E",
"w. c #1D009E",
"e. c #0708A4",
"r. c #1205A2",
"t. c #1709A7",
"y. c #1C10AE",
"u. c #0000B5",
"i. c #1414B2",
"p. c #BA6982",
"a. c #888688",
"s. c #9F8688",
"d. c #88869F",
"f. c #959395",
"g. c #9C9A9C",
"h. c #A39698",
"j. c #A9A7A9",
"k. c #F5DEDE",
"l. c black",
/* pixels */
"l.l.l.l.l.l.l.l.l.l.l.l.l.l.l.l.l a l.l.l.l.l.l.l.l.l.l.l.l.l.l.l.l.l.l.l.l.l.l.l.l.l.l.l.l.l.l.l.l.l.l.l.l.l.l.l.l.l.l.l.l.l.l.",
"l.l.l.l.l.l.l.l.l.l.l.l.l.l.l.l.l a l.l.l.l.l.l.l.l.l.l.l.l.l.l.l.l.l.l.l.l.l.l.l.l.l.l.l.l.l.l.l.l.l.l.l.l.l.l.l.l.l.l.l.l.l.l.",
"l.l.l.l.l.l.l.l.l.l.l.l.l.l.l.l.l a l.l.l.l.l.l.l.l.l.l.l.l.l.l.l.l.l.l.l.l.l.l.l.l.l.l.l.l.l.l.l.l.l.l.l.l.l.l.l.l.l.l.l.l.l.l.",
"l.l.l.l.l.l.l.l.l.l.l.l.l.l.l.l.l x a.l.l.l.l.l.l.l.l.l.l.l.l.l.l.l.l.l.l.l.l.l.l.l.l.l.l.l.l.l.l.l.l.l.l.l.l.l.l.l.l.l.l.l.l.l.",
"l.l.l.l.l.l.l.l.l.l.l.l.l.l.l.l.l x g.a.l.l.l.l.a l.l.l.l.l.l.l.l.l.l.l.l.l.l.l.l.l.l.l.l.l.l.l.l.l.l.l.l.l.l.l.l.l.l.l.l.l.l.l.",
"l.l.l.l.l.l.l.l.l.l.l.l.l.l.l.l.l l x a.l.l.l.l a l.l.l.l.l.l.l.l.l.l.l.l.l.l.l.l.l.l.l.l.l.l.l.l.l.l.l.l.l.l.l.l.l.l.l.l.l.l.l.",
"l.l.l.l.l.l.l.l.l.l.l.l.l.l.l.l.* y x g.g.f.l x a.l.l.l.l.l.l.l.l.l.l.l.l.l.l.l.l.l.l.l.l.l.l.x f.x g.f.a l.l.l.l.l.l.l.l.l.l.l.",
"l.l.l.l.l.l.l.l.l.l.l.l.l.l.l.l.l.l l x g.g.f.l x a.l.l.l.l.) ) ) _ $.) / M ! l.l.l.l.l.l.l.g.g.f.x f.x a.l.l.l.l.l.l.l.l.l.l.l.",
"l.l.l.l.l.l.l.l.l.l.l.l.l.l.l.l.l.* y l x g.g.g.s.G J ) ( G J ) ) ) ) ( G F v v m J ) ^ x g.g.f.l h * * % l.l.l.l.l.l.l.l.l.l.l.",
"l.l.l.l.l.l.l.l.l.l.l.l.x a.l.l.l.l.* y l x g.g.j.k.J ( J ) / M ) ( J ) ( F m J ) ( K g.g.g.f.l l h % l.l.l.l.l.l.l.l.l.l.l.l.l.",
"l.l.l.l.l.l.l.l.l.l.l.l.l a l.l.l.l.n y l l l x g.s.J ) ( F v m J ( J ( G G J ) ) ( K g.g.f.l l h % l.l.l.l.l.l.l.l.l.l.l.l.l.l.",
"l.l.l.l.l.l.l.l.l.l.l.l.l.x f.a l.G G D l l l l x s.J ( G J ( G J ) ) / m F m J ) ) ' f.l l l l d m N l.l.x a.l.l.l.l.l.l.l.l.l.",
"l.l.l.l.l.l.l.l.l.l.l.l.l.x g.f.l g ( S y l l l l g ( G J ) ) ( F m F m G G F m J ) ^ l l l l h q J ^ x g.g.f.a l.l.l.l.l.l.l.l.",
"l.l.l.l.l.l.l.l.l.l.l.l.l.l.l x f.l g ( F M ( G J / m J ) ( G F c > > ; m J ) ) / v c > > > > ; M ^ l x f.l a l.l.l.l.l.l.l.l.l.",
"l.l.l.l.l.l.l.l.l.l.l.l.l.l.* y l g ) / v v v v v m G J ) ) ) ( A > > < G G J ) ) ( F c > > > ; M ~ 5 l h * % l.l.l.l.l.l.l.l.l.",
"l.l.l.l.l.l.l.l.l.l.l.l.l.l.G G J ) ) ( F v v m G G J ( J ) ) / v c ; m J ) ( J ) ( F c > > > < G A > > > < N l.l.l.l.l.l.l.l.l.",
"l.l.l.l.l.l.l.l.l.l.l.l.G F m J / m F b U > > > , C v m G G G G G A > ; M / v v m F c > 6 *.1.*.2.1.o.; v m J ( N l.l.l.l.l.l.l.",
"l.l.l.l.l.l.l.l.l.l.l.l.( F m G J ( G A > > , E E U ; v v m G G F n * & > > ; c > > > 5 z %.{ 4.| 2.1.+.v c < J ( N l.l.l.l.l.l.",
"l.l.l.l.l.l.l.l.l.l.l.m F M / m J ( F c > , E E Q #.U < J _ $.( A > : * & 2 ( G A > > 6 %.] r E Y | 1.&.@.J / m G G N l.l.l.l.l.",
"l.l.l.l.l.l.l.l.l.l.v m F M ( G F v c , U , U > > ; m J ) ) ) ~ : * y h * & = . = X t X.% X % X e } X.* & ; c ; v v v 1 l.l.l.l.",
"l.l.l.l.l.l.l.l.l.> > ; v m F v c > > , E E U : * & ; v c > ; c : r R & : * & > > : * * % $ e.r W h e I > 2 ( A > > > = l.l.l.l.",
"l.l.l.l.l.l.l.l.l.> > > > > > > > , Q o., U 5 f E U > > > > , R * 0 Z ;.U > = $ 9.> > = $ u.e.t %.] % . ; M ) ( A > > ; 1 l.l.l.",
"l.l.l.l.l.l.l.l.l.c > > > > > , Q #.E Q o.> : % X * * * * t #.8 $ 0.v v B  .+ Q $./ v 7 u.u.u.i.a.. > > < J ) ) ( A > ; 1 l.l.l.",
"l.l.l.l.l.l.l.G J ( A > > 6 #.E Q &.o.: * t *.1.X.* % X i 2.<.k u.9.- u.i.h.2.2.p.w.) ` w.( V u.u.u.u.9.; v M ( F v m G N l.l.l.",
"l.l.l.l.l.J ) ( V u.u.u.9., E E Q o.: e | 2.1.X.% . : i <.j ] & < A - u.u.u.u.y.2.p.y.:.` 0.7 u.u.u.u.9.> ; v v v v c < N l.l.l.",
"l.l.l.l.l.) ` u.u.8.O v 7 9.> , E U : i 2.1.X.* * * t O.h * & ; c - u.u.u.y.2.p.u.q.V t...u.u.r.9 0.7 u.u.u.0.v c > ; c = l.l.l.",
"l.l.l.c = $ q.V u.u.u.u.8.. > > =   X e ] * % X e | ,.t *.-.- u.u.u.u.u.q.G V u.q.L p.w.` u.u.u.u.9.> > > = $ u.u.8.$ u.0.1 l.l.",
"l.l.l.c - q.G V u.u.u.i.d.8.  . : % X t  .. : * i 2.>.I - u.u.9.- q.J ` u.r.9 u.u.u.y.:.` q.G V 0.7 w.` 9.- 8.$ 9.- u.u.0.c = l.",
"l.l.l.7 9.< V u.u.q.H 9 u.u.q.D a   X e I > > 3 } &.X.% $ 8.$ w.` u.q.J ` u.u.u.w.) ` u.u.q.G F m V w.` u.0.1 O m V u.0.7 9.= l.",
"l.l.l.8.O 7 9.- q.G V u.r.9 q.G V 8.  o s > > : t *.,.& - 9.- w./ m G G F v M ( V u.u.u.w.( F v 7 u.9.; c > - 0.m G V 9.- 9.= l.",
"l.l.l.u.8.$ u.u.9.- u.9.- u.u.u.w.( S r 8 . > , Q &...8.@ ( G A < V u.q.F 7 9.; m V u.0.M / 7 8.  . ; c > =   . ; v m V u.9.> = ",
"l.l.l.$ 8.$ 8.$ 9.- u.r.R * w ` u.u.e.e I = . 4 5.O.a   $ w./ 7 0.v v v m V 9.; 7 8.O c ; 7 0.c > - 8.$ 8.  $ u.9.> > =   . > = ",
"l.l.u.u.u.8.$ 8.$ u.e.u 6.6.6.3.p u.e.* & > = + Q %.T ( J ! @ / v v v 7 u.u.9.; 1 $ q.F 7 0.v c =   $ 8.$ u.u.8.$ 9.= $ 8.. =   ",
"u.u.u.u.u.u.u.u.u.e.u 6.6.6.6.3.* * i =.$ u.u.8.# ] 0 7 9.> = $ 9.- u.9.> ; 7 8.$ 8.. = . > > = $ u.u.u.u.u.u.u.u.u.u.u.8.      ",
"u.u.e.* * * p u.u.e.u 6.3.u 3.* * p t.*.2.2.1.&.O.a O 7 8.. - 9.; v c > > - 8.$ 8.$ u.u.u.u.u.u.u.u.u.u.u.u.u.u.u.8.          l.",
"l.l.l.u.u.e.u 6.7.8.  X % X % X % X * e ] e ] e [ P $ 8.$ u.8.$ 9.= . =   $ 8.$ u.u.u.u.u.u.u.u.u.u.u.u.u.8.                  l.",
"l.l.l.l.l.l.    X %   X %     X %   X p u.u.u.u.u.u.u.u.u.u.u.8.        l.l.u.u.u.u.u.u.u.u.u.u.8.                          l.l.".
"l.l.l.l.l.l.l.l.l.l.l.l.l.l.l.l.l.l.l.X * p u.u.u.8.            l.l.l.l.l.l.l.l.l.u.u.u.u.8.        l.l.l.l.l.l.l.l.l.l.l.l.l.l."
};
