/* XPM */
static char *result[] = {
/* columns rows colors chars-per-pixel */
"64 64 116 2 ",
"   c #171904",
".  c gray11",
"X  c #242509",
"o  c #323301",
"O  c #282714",
"+  c #21261C",
"@  c #342D15",
"#  c #3B2E11",
"$  c #342E18",
"%  c #3B331A",
"&  c #3B3D1A",
"*  c #222222",
"=  c #252920",
"-  c #292C24",
";  c #2F2F2F",
":  c #2E302C",
">  c #30332D",
",  c #343533",
"<  c #393B37",
"1  c #3D3D3D",
"2  c #4A3410",
"3  c #46391E",
"4  c #523A16",
"5  c #763A05",
"6  c #443825",
"7  c #655313",
"8  c #6A5B1D",
"9  c #524126",
"0  c #404141",
"q  c #494746",
"w  c #464846",
"e  c #494C46",
"r  c #4E4E4E",
"t  c #4F514D",
"y  c #53504A",
"u  c #5C564B",
"i  c #504F50",
"p  c #525252",
"a  c #5C5B54",
"s  c #565658",
"d  c #5B5B5B",
"f  c #5F6341",
"g  c #5E605C",
"h  c #63634B",
"j  c #6B6E4C",
"k  c #736E5B",
"l  c #707252",
"z  c #74745B",
"x  c #666666",
"c  c #676A64",
"v  c #6F6E64",
"b  c #6C6C6C",
"n  c #756F6B",
"m  c #6E716A",
"M  c #737373",
"N  c #787977",
"B  c #7B7B7B",
"V  c #93650E",
"C  c #97711E",
"Z  c #A47F11",
"A  c #AB7C26",
"S  c #AF9D12",
"D  c #B29C14",
"F  c #B7A71D",
"G  c #AA8C21",
"H  c #B9922D",
"J  c #C5BB11",
"K  c #DCD900",
"L  c #D5D41E",
"P  c #E2D41F",
"I  c #E2E400",
"U  c #EFED0F",
"Y  c #F3ED01",
"T  c #F1F10B",
"R  c #ECE514",
"E  c #F0EC14",
"W  c #D7C120",
"Q  c #E1D123",
"!  c #9C874F",
"~  c #BDBA50",
"^  c #858270",
"/  c #8E8E72",
"(  c #80817F",
")  c #998472",
"_  c #909074",
"`  c #7E7E80",
"'  c #838383",
"]  c #8F8F80",
"[  c #8A8A8A",
"{  c #919087",
"}  c #8E8E90",
"|  c #949494",
" . c #9A9A97",
".. c #959598",
"X. c #9B9B9B",
"o. c #A19B85",
"O. c #A4A38C",
"+. c #A8A397",
"@. c #A3A3A3",
"#. c #ACACAC",
"$. c #B5B0A6",
"%. c #BBB5AC",
"&. c #B4B4B4",
"*. c #BCBCBC",
"=. c #C4BBAF",
"-. c #C6C1B6",
";. c #C0BFC0",
":. c #C3C3C3",
">. c #CCCCCC",
",. c #CFD0D1",
"<. c #D3D3D3",
"1. c #DCDCDC",
"2. c #E4E4E4",
"3. c #EBEBEB",
"4. c #F3F3F3",
"5. c #FEFEFE",
/* pixels */
"* ; , ; , ; ; ; ; ; ; ; ; ; ; ; ; ; ; ; ; ; ; ; ; ; ; ; ; ; ; ; ; ; , ; ; ; , ; , ; ; ; ; ; ; ; ; ; ; ; ; ; ; ; ; ; ; ; ; , ; . ",
", d x x x c x x x x x x x x x x x x x x x x x x x x x x x x x x x x x x x x x x x x x x x x x x x x x x x x x x x x x x x x d ; ",
", N B B B B ' X.' ( B B B ( ' X.' ( B ( ` ` ( X.' B ( ` B B ' X.' ` B B B B B X.' B B B B B `  .' ( ` B B B ( X.' ( B B ` B b ; ",
", [  .....} B [ .... . ...} N | ..|  .....| B } X. .|  .| | [ X.X... .....| N | X... ... .| B |  ... ... .} B | X... .| | ..M - ",
"1 #.*.*.*.@.` ' #.#.#.#.#.X.( ' @.#.#.#.#.X.` ' @.#.#.#.#.X.' [ #.#.#.#.#.X.( ' #.#.#.#.#.X.( ' #.#.#.#.#.X.( ' #.&.*.*.=.*.` * ",
"1 *.>.>.>.:.N i i s p s s p i i i s s p s s i i p s s i s s i p p p p s s p p p p p p s s s p s s s d d g d s s s b :.>.,.:.' * ",
"0 *.>.<.>.<.;.| } [ ' ` N N N N M M M b b b b b n b M M n M M M N N B ( ` ' ' [ | } X.@.@.@.@.#.&.&.;.>.,.>.<.1.>.b ;.,.,.>.[ * ",
"0 *.;.1.<.<.>.&.#.X.X.| [ ' ` B B N N M M M M M M M N B N B B ` ` [ [ | X.@.@.#.*.-.>.,.,.<.,.1.1.3.3.4.5.5.5.5.2.B ;.;.1.,.' * ",
"0 *.#.#.>.1.>.@.@. .} ' ' ( B B B M M M M M M M M B B B N B B ' [ } |  .X.@.&.&.:.>.>.>.>.<.1.1.2.4.3.4.5.5.5.5.2.B ;.#.#.>.' * ",
"0 *.:.:.>.<.;.X.| [ ' ' ( ` B N N M M M M M M N B N B N B ( ' [ } | X.X.@.#.*.:.>.>.>.>.<.1.1.2.3.4.4.5.5.5.5.5.1.M :.:.:.>.[ * ",
"0 *.>.>.>.<.;...| ' ' ` B N B N M M M M M M M N B B B B ( ' [ [  .X.X.@.#.*.:.>.>.>.>.,.1.1.2.3.3.4.5.5.5.5.5.5.1.M :.>.>.>.[ * ",
"0 *.,.,.>.<.=.} ' ' ( B B B N M M M M b M M M B B N B ` ( [ } } X.X.@.&.*.:.:.>.>.,.<.<.1.2.3.3.4.5.5.5.5.5.5.5.,.b :.,.>.>.' * ",
"0 *.,.>.>.<.*.[ ` ` ` N B N M M M M M M M N B B B B ` ' [ [ | X.X.@.&.&.;.>.>.>.>.,.1.1.2.3.4.4.5.5.5.5.5.5.5.4.*.b :.>.>.>.' * ",
"0 *.,.>.>.1.#.` B ` N ` N M M M M M M M B B B B B ` ` [ } | X.X.@.#.*.;.>.>.>.,.,.1.1.1.3.3.4.5.5.5.5.5.5.4.4.4.*.M :.>.>.>.[ * ",
"r ;.>.,.>.<.#.` ` B N N M M M M M M N N N B N ` ( ' [ [ ..X.X.@.&.*.;.>.>.>.>.,.1.1.2.3.4.4.5.5.5.5.5.5.5.5.4.3.&.x :.>.,.>.[ * ",
"i ;.;.1.,.1.#.N N B N M M M M n M M B B B B B B ' [ [ ..X.X.@.#.*.=.>.>.>.>.,.<.1.1.3.4.4.5.5.5.5.5.5.5.4.3.2.2.&.x ;.*.<.,.' * ",
"r =.#.#.>.1.#.N B M M M M M M M M B B B N B ` ` ' | ....@.@.&.&.:.>.>.>.>.<.<.1.3.3.4.4.5.5.5.5.5.5.5.4.3.3.2.2.#.x ;.@.@.>.' * ",
"i ;.:.:.,.<.#.N N M M M M M M M N B B N B ` ` [ [ |  .+.@.#.*.;.>.>.>.>.<.1.1.2.3.4.4.4.5.5.5.5.5.5.4.4.3.2.1.<.@.x ;.:.:.>.[ * ",
"i ;.,.>.>.1.#.M M M M M M M M B B B B B ( ` [ } .. .X.@.#.&.:.>.>.>.>.<.1.1.2.3.4.4.5.5.5.5.5.5.5.4.4.3.2.1.<.<.X.x =.,.,.>.[ * ",
"i ;.>.>.>.<.#.M M M M M M M B N B B B ` ' [ } | X.@.@.#.*.;.>.>.>.>.<.<.1.2.3.4.5.4.5.5.5.5.5.5.4.4.2.2.2.<.<.>.X.x :.,.>.>.' * ",
"r ;.>.,.>.<.#.b M M b M M B B B B B ( ' ' } | X.X.@.&.*.*.>.>.>.>.<.<.1.2.3.4.4.5.5.5.5.5.5.5.4.4.2.2.1.<.<.>.<.X.g ;.>.>.:.[ * ",
"r ;.,.>.>.1.#.M M M M M B N B B B ` ' ' } | X.X.@.#.&.:.>.>.>.>.<.<.1.3.3.4.4.5.5.5.5.5.5.5.4.4.3.2.2.<.<.>.>.>.X.x ;.>.>.>.[ * ",
"r ;.>.,.,.1.&.b M M M N B B B B B ' [ [ |  .X.@.#.*.:.:.>.>.>.>.<.1.2.3.4.4.4.5.5.5.5.5.5.4.4.2.2.1.<.>.>.>.:.:.X.g ;.,.,.>.' * ",
"i ;.*.1.,.2.&.M M M B B B N N ' ( [ } | X.X.@.&.*.:.>.>.>.>.<.1.1.2.3.3.4.5.5.5.5.5.5.5.4.4.2.2.1.1.<.>.>.>.:.*.| d ;.#.<.,.[ * ",
"i *.#.#.>.2.*.M M N B B B B ' ' ' } | X.X.@.&.&.:.>.>.>.>.<.<.1.2.3.4.4.4.5.5.5.5.5.5.4.4.3.2.1.<.,.,.,.>.;.*.&.} s &.| @.:.[ * ",
"i ;.:.:.>.3.*.b B B B B B B ' ' } |  .X.@.&.&.:.:.,.,.>.<.1.1.2.3.4.4.5.5.5.5.5.5.5.4.4.2.2.1.1.<.>.>.:.:.*.&.#.[ p *.:.:.&.[ * ",
"r :.,.>.>.2.*.N N B N B B ' [ [ } X.@.@.&.*.;.:.:.>.>.<.<.1.2.3.3.4.5.5.5.5.5.5.5.4.4.2.2.1.1.<.>.>.>.;.*.&.#.@.' p ;.>.&.@.B * ",
"r ;.>.,.,.2.*.N ` B B ` ' [ N y n B N B B ` ( B  .>.,.1.1.2.3.4.4.5.5.5.5.5.5.4.4.4.2.2.1.<.>.>.>.>.;.*.&.#.X.X.B s &.&.X...B * ",
"r :.>.>.>.3.;.N N ^ / _ ] | N > q s i i i r i i ( <.1.1.2.3.4.4.5.5.5.5.5.5.5.4.4.2.2.2.<.<.>.>.>.:.*.&.&.@.X. .M i #.X.X.| B * ",
"r ;.>.>.>.2.*.N n G U U ~ ..N > q r p p p r w i ` <.1.2.3.4.4.5.5.5.5.5.5.5.4.4.2.2.1.<.<.,.>.>.;.*.&.#.X.X.X.' b i | | | | B * ",
"r :.>.,.>.3.*.M q 7 Y Y ! X.B > i p i p i p p i ' <.2.3.3.4.5.5.5.5.5.5.5.4.4.2.1.1.1.,.,.>.>.:.*.&.#.@.X.} } ' b i [ |  . .B * ",
"i ;.;.1.<.2.*.b 0 & I R { @.B > p p p p i p i i ' 2.3.4.4.5.5.5.5.5.5.5.4.4.3.2.1.1.,.>.>.>.:.*.&.#.@.X.X.[ ' ( b i ' B #.X.B * ",
"r ;.#.#.>.2.*.n M f I E O.@.( > i i y u h h p i [ 3.4.4.5.5.5.5.5.5.5.5.4.2.2.1.<.,.>.>.>.*.;.&.#.@.X.| [ ' ` B b i ' B ' ..' * ",
"r ;.:.:.>.1.#.N } j I P +.&.[ > p w 4 C J L h s X.3.4.5.5.5.5.5.5.5.4.3.2.2.1.1.,.>.>.>.;.*.&.#.@.X...[ ' ` B B x r [ |  .#.' * ",
"i ;.,.>.*.&.X.' ..j I Q $.*.[ > r < @ @ o F h x &.4.5.5.5.5.5.5.5.4.4.2.2.1.<.<.>.>.>.;.*.&.#.@. .| [ ' ` B B B b r [ ..#.*.[ * ",
"r :.>.,.#.#.X.' X.j I P %.:.| > r ; $ =   S j B >.5.5.5.5.5.5.5.4.4.3.2.1.<.<.>.>.>.:.*.&.#.X.X...} ' ( ` B B B b r } #.-.>.' * ",
"r ;.>.>.#.#.X.' @.l K W %.>.| : r = % a 6 D z  .2.5.5.5.5.5.5.4.4.2.2.2.1.<.>.>.>.;.*.&.#.@.X.} [ ' ' B B B B M x i X.;.,.:.[ * ",
"r :.>.>.#.#.X.[ #.v G H -.,.| : r + X % 2 8 v #.2.5.5.5.5.5.4.4.2.2.1.<.>.>.>.>.:.;.&.#.X.X.| [ ' ` B B B N N M x p &.,.:.*.' * ",
"r ;.>.,.#.#.X.[ *.k V Z =.,.| > r ; + - < t N &.3.5.5.5.5.4.3.3.2.1.1.>.>.>.>.:.=.&.#.@.X. .[ ' B B B B N N M M x p ;.>.;.;.[ * ",
"r :.*.1.&.#.X.}  .6 5 5 ) <.| > i i i p s b [ :.3.5.5.5.4.4.3.2.1.<.<.>.>.>.:.*.&.#.@.X.} [ ' ` B B B N N M M M x p &.&.<.>.[ * ",
"r *.#.#.#.#.X.B p O # 3 { 1. .: i y p p x ( #.<.4.5.5.4.4.3.2.1.1.>.>.>.>.:.*.&.#.@.X. .} ' ` ` B B N M M M M M x p #.@.#.:.[ * ",
"r :.:.:.#.#. .M p , g @.>.1. .> t p s x ' #.:.&.2.5.4.4.2.2.1.<.<.>.>.>.:.*.&.#.@.X.| [ ' ` ( N B N N M M M M M x i #.:.>.>.' * ",
"r :.>.>.#.#.X.M m ` &.<.<.2. .> r s x ' #.;.@.[ :.4.4.2.2.1.1.<.>.>.>.:.*.&.#.@. .| [ ' ` B B B N M M M M M M M x p *.,.>.>.[ * ",
"r :.>.>.#.#.X.N [ *.<.1.1.2.@.= > < e a m c t t #.4.3.2.1.<.<.>.>.>.:.*.&.&.X. ...[ ' ` B B B B N M b M M M M M x s *.,.>.>.[ * ",
"r ;.>.>.&.&.@.} *.<.1.1.1.3.<.#.#.#.#.#.#.#.#.&.2.2.2.1.<.<.>.>.>.*.*.&.#.@.X. .' ' ' B B B B M M M M M M M M N x p *.,.>.>.' * ",
"i :.>.>.>.:.>.;.<.<.1.2.3.4.4.5.5.5.5.5.5.5.5.4.2.2.1.1.,.>.>.>.:.*.&.#.@.X...} ' ' B B B N M M M M M M M M N B b p *.>.>.>.' * ",
"r :.>.<.>.2.1.,.<.2.2.2.4.4.4.5.5.5.5.5.5.4.3.2.2.1.<.>.>.>.>.*.*.&.#.@. ...[ ' ' B B B N N M M b M M M M N B B b s *.>.<.>.[ * ",
"i =.*.1.,.2.3.1.1.2.3.4.4.5.5.5.5.5.5.5.5.3.3.2.1.1.<.>.>.>.:.*.&.#.@.X.| [ ' B B B B N N M M M M M M M N B B B b p *.*.1.>.[ * ",
"i ;.#.#.>.2.3.1.2.3.4.4.5.5.5.5.5.5.5.4.4.3.2.1.<.<.>.>.>.;.*.&.#.X.@...[ ` ` B N ` B M M M M M M M M N B B ` ( n i *.#.#.>.' * ",
"r ;.:.:.>.3.4.1.3.4.4.5.5.5.5.5.5.5.4.4.2.2.1.<.<.>.>.>.;.*.&.#.@. .} [ ' ` B B B B M M M n M M M M N B B B ` ' M s *.:.:.>.[ * ",
"i ;.,.,.>.2.4.3.3.4.5.5.5.5.5.5.5.4.3.3.2.2.1.<.>.>.>.:.*.&.#.@.X. .[ ' ` ` B B N M M M M b M M M M B B ` ( ' [ ( s *.,.>.>.[ * ",
"r ;.>.>.>.3.4.4.4.5.5.5.5.5.5.5.4.3.3.2.1.<.<.>.>.>.*.*.&.#.@. ...' ' ' B B ` B M M M M M M M M B B B ` ( ' } | ` s =.,.>.>.' * ",
"i ;.>.>.>.2.5.4.5.5.5.5.5.5.5.4.4.2.2.1.1.>.>.>.>.:.*.*.#.@. .| } ' ` ( B M ` M M M M M M M M N B B ` ` ' '  .X.' s *.>.>.>.' * ",
"i ;.>.>.>.2.5.4.5.5.5.5.5.5.4.4.2.2.1.<.>.>.>.>.:.*.&.#.@. . .[ ' ( B B ` ` M M M M M M M M B B B ` ` ' }  .X.@.[ s *.,.>.>.[ * ",
"i ;.,.,.>.3.5.5.5.5.5.5.5.4.4.3.2.1.<.<.>.>.>.:.*.&.#.@.X...[ ' ` B B B N M M M M M M M M N B B B ` ' [ } X.@.#.| s *.>.,.>.[ * ",
"t ;.;.1.<.3.5.5.5.5.5.5.4.3.3.2.1.1.<.>.>.>.:.*.&.#.@.X...[ ' ' B B B B N M b M M b M M N B B B ` ' [ | X.@.&.&.| s *.;.1.,.' * ",
"i *.&.&.2.4.5.5.5.5.5.4.4.3.2.1.<.<.>.>.:.*.*.&.@.@.X.} [ ' ` B N B N M M b M b x M M N B N B ` ` [ } X.@.#.&.*. .p *.#.&.:.' * ",
"r *.>.1.3.4.5.5.5.5.5.4.4.4.4.3.3.3.2.3.2.2.1.1.<.,.>.-.*.&.&.#.#.&.&.&.&.&.#.@.X.#.#.&.&.&.&.*.*.;.:.>.,.,.,.1.&.x *.:.>.>.[ * ",
"t >.2.3.3.4.4.4.3.2.2.3.2.2.2.2.2.2.2.3.2.3.2.2.2.3.2.<.>.;.*.&.*.;.>.<.1.1.1.,.:.<.1.1.1.1.2.1.1.1.1.1.1.1.1.1.,.#.>.>.>.>.' * ",
"i <.3.3.4.3.3.1.>.>.>.>.>.>.>.<.>.>.>.>.>.>.>.<.>.>.*.#...} |  .|  .@.=.>.,.:.*.:.>.,.>.,.>.>.,.,.,.>.>.>.,.>.,.,.,.>.>.>.>.[ * ",
"i 1.4.3.3.3.,.1.,.>.,.>.>.>.=.1.<.>.>.>.>.,.*.1.,.;.#.X.| [ ' #.X.@.;.>.,.:.&.<.,.>.,.>.>.>.*.1.,.>.>.>.>.>.*.1.,.>.>.>.>.>.' * ",
"p 1.4.4.3.<.#.#.>.>.,.>.>.>.#.&.>.>.>.>.>.:.#.#.*.#...| | } B ' #.;.,.,.:.&.@.&.>.>.>.,.>.>.#.&.>.,.>.,.>.>.#.#.>.>.,.,.,.>.[ * ",
"d >.<.<.:.;.&.&.*.*.*.*.*.*.&.&.*.*.*.*.*.*.&.#.@.[ [ [ [ [ [ ..&.*.;.&.@.&.&.&.*.*.*.*.*.*.&.&.*.=.*.*.*.*.&.&.*.*.*.*.*.*.( < ",
"w s s s p p p p p p p p i p p p p p p p p p p r r r w r r r r i i p p i i i p p p p p p i i p p p p i p p p p p p i p p p p i 6 "
};
