/* XPM */
static char *result[] = {
/* columns rows colors chars-per-pixel */
"79 60 139 2 ",
"   c #000000",
".  c #0B0703",
"X  c #050B03",
"o  c #090F07",
"O  c #0C0C0C",
"+  c #160F07",
"@  c #120E09",
"#  c #0B1707",
"$  c #131207",
"%  c #15120C",
"&  c #1A150C",
"*  c #1B1D0B",
"=  c #141414",
"-  c #191511",
";  c #151B13",
":  c #1E1A12",
">  c #1C1C1C",
",  c #20170B",
"<  c #231B0C",
"1  c #221E15",
"2  c #231F19",
"3  c #1F210D",
"4  c #1D251A",
"5  c #25230F",
"6  c #2B230F",
"7  c #272317",
"8  c #2F2711",
"9  c #2F2B13",
"0  c #24251C",
"q  c #2A251B",
"w  c #352A13",
"e  c #3B2D16",
"r  c #332A1D",
"t  c #3B2919",
"y  c #3F3117",
"u  c #242424",
"i  c #2B2721",
"p  c #242C21",
"a  c #2E2E2E",
"s  c #312D23",
"d  c #353125",
"f  c #3B3327",
"g  c #343434",
"h  c #3D3933",
"j  c #3C3C3C",
"k  c #412B17",
"l  c #443319",
"z  c #4A371B",
"x  c #4F3A1D",
"c  c #543D1F",
"v  c #493727",
"b  c #413729",
"n  c #4B3D2D",
"m  c #543D21",
"M  c #5B3F21",
"N  c #413D33",
"B  c #5C4222",
"V  c #47433D",
"C  c #5B4533",
"Z  c #644525",
"A  c #6B4727",
"S  c #6A4927",
"D  c #6F4B29",
"F  c #734D2A",
"G  c #794F2D",
"H  c #77512D",
"J  c #7D522E",
"K  c #76533C",
"L  c #007F7F",
"P  c #434343",
"I  c #4B4B4B",
"U  c gray33",
"Y  c #5B5B5B",
"T  c #7B5941",
"R  c #736B5F",
"E  c #626262",
"W  c #6C6C6C",
"Q  c #737373",
"!  c #7A7A75",
"~  c gray50",
"^  c #835631",
"/  c #875933",
"(  c #8B5B35",
")  c #915D37",
"_  c #956139",
"`  c #9D663D",
"'  c #A3693F",
"]  c #A76C41",
"[  c #AB6F43",
"{  c #AF7145",
"}  c #B47446",
"|  c #B97749",
" . c #BE794B",
".. c #C57E4E",
"X. c #CF8353",
"o. c #D28656",
"O. c #D78B5B",
"+. c #DB8F5F",
"@. c #DF9363",
"#. c #E39767",
"$. c #E79B6B",
"%. c #EFA373",
"&. c #038383",
"*. c #0B8783",
"=. c #058B83",
"-. c #0D8D8D",
";. c #108B85",
":. c #159187",
">. c #199589",
",. c #129292",
"<. c #1B9B9B",
"1. c #20978B",
"2. c #249B8D",
"3. c #299F8F",
"4. c #30A191",
"5. c #3BA795",
"6. c #21A1A1",
"7. c #2DADAD",
"8. c #40A997",
"9. c #43AB99",
"0. c #51B59F",
"q. c black",
"w. c #4AD8E3",
"e. c #848484",
"r. c #8B8B8B",
"t. c #939393",
"y. c #9E9E9E",
"u. c #A5A5A5",
"i. c #AFAFAF",
"p. c #BFB1A9",
"a. c #B3B3B3",
"s. c #BEBEBE",
"d. c #D3C5BD",
"f. c #C3C3C3",
"g. c #CDCDCD",
"h. c #D7D7D7",
"j. c #DDDDDD",
"k. c #E6E6E6",
"l. c #EDEDED",
/* pixels */
"q.q.q.q.q.q.q.q.q.q.q.q.q.q.q.q.q.q.q.q.q.q.q.q.q.q.q.q.q.q.q.q.q.q.q.q.q.q.q.q.,.j 6.q.q.q.q.q.q.q.q.q.q.q.q.q.q.q.q.q.q.q.q.q.q.q.q.q.q.q.q.q.q.q.q.q.q.q.w.",
"q.q.q.q.q.q.q.q.q.q.q.q.q.q.q.q.q.q.q.q.q.q.q.q.q.q.q.q.q.q.q.q.q.q.q.q.q.q.q.q.,.@ L q.q.q.q.q.q.q.q.q.q.q.q.q.q.q.q.q.q.q.q.q.q.q.q.q.q.q.q.q.q.q.q.q.q.q.w.",
"q.q.q.q.q.q.q.q.q.q.q.q.q.q.q.q.q.q.q.q.q.q.q.q.q.q.q.q.q.q.q.q.q.q.q.q.q.q.q.q.,.u ,.q.q.q.q.q.q.q.q.q.q.q.q.q.q.q.q.q.q.q.q.q.q.q.q.q.q.q.q.q.q.q.q.q.q.q.w.",
"q.q.q.q.q.q.q.q.q.q.q.q.q.q.q.q.q.q.q.q.q.q.q.q.q.q.q.q.q.q.q.q.q.q.q.q.q.q.q.7.a   a 7.q.q.q.q.q.q.q.q.q.q.q.q.q.q.q.q.q.q.q.q.q.q.q.q.q.q.q.q.q.q.q.q.q.q.w.",
"q.q.q.q.q.q.q.q.q.q.q.q.q.q.q.q.q.q.q.q.q.q.q.q.q.q.q.q.q.q.q.q.q.q.q.q.q.6.I U h & V E U 6.q.q.q.q.q.q.q.q.q.q.q.q.q.q.q.q.q.q.q.q.q.q.q.q.q.q.q.q.q.q.q.q.w.",
"q.q.q.q.q.q.q.q.q.q.q.q.q.q.q.q.q.q.q.q.q.q.q.q.q.q.q.q.q.q.q.q.q.q.q.q.6.P P j a u a j j P 6.q.q.q.q.q.q.q.q.q.q.q.q.q.q.q.q.q.q.q.q.q.q.q.q.q.q.q.q.q.q.q.w.",
"q.q.q.q.q.q.q.q.q.q.q.q.q.q.q.q.q.q.q.q.q.q.q.q.q.q.q.q.q.q.q.q.q.q.q.6.P P P P g u j I P P P 6.q.q.q.q.q.q.q.q.q.q.q.q.q.q.q.q.q.q.q.q.q.q.q.q.q.q.q.q.q.q.w.",
"q.q.q.q.q.q.q.q.q.q.q.q.q.q.q.q.q.q.q.q.q.q.q.q.q.q.q.q.q.q.q.q.q.q.q.6.j g j P g u g j j g j 6.q.q.q.q.q.q.q.q.q.q.q.q.q.q.q.q.q.q.q.q.q.q.q.q.q.q.q.q.q.q.w.",
"q.q.q.q.q.q.q.q.q.q.q.q.q.q.q.q.q.q.q.q.q.q.q.q.q.q.q.q.q.q.q.q.q.q.6.j g g g j g u g j g j g j 6.q.q.q.q.q.q.q.q.q.q.q.q.q.q.q.q.q.q.q.q.q.q.q.q.q.q.q.q.q.w.",
"q.q.q.q.q.q.q.q.q.q.q.q.q.q.q.q.q.q.q.q.q.q.q.q.q.q.q.q.q.q.q.q.q.q.<.g a g g g a u g g g a a g <.q.q.q.q.q.q.q.q.q.q.q.q.q.q.q.q.q.q.q.q.q.q.q.q.q.q.q.q.q.w.",
"q.q.q.q.q.q.q.q.q.q.q.q.q.q.q.q.q.q.q.q.q.q.q.q.q.q.q.q.q.q.q.q.q.6.j g a a a g g a g g g a a g j 6.q.q.q.q.q.q.q.q.q.q.q.q.q.q.q.q.q.q.q.q.q.q.q.q.q.q.q.q.w.",
"q.q.q.q.q.q.q.q.q.q.q.q.q.q.q.q.q.q.q.q.q.q.q.q.q.q.q.q.q.q.q.q.q.6.j g a a a g g a a g a a a g j 6.q.q.q.q.q.q.q.q.q.q.q.q.q.q.q.q.q.q.q.q.q.q.q.q.q.q.q.q.w.",
"q.q.q.q.q.q.q.q.q.q.q.q.q.q.q.q.q.q.q.q.q.q.q.q.q.q.q.q.q.q.q.q.6.j g a a a a a a a a a a a a a g j 6.q.q.q.q.q.q.q.q.q.q.q.q.q.q.q.q.q.q.q.q.q.q.q.q.q.q.q.w.",
"q.q.q.q.q.q.q.q.q.q.q.q.q.q.q.q.q.q.q.q.q.q.q.q.q.q.q.q.q.q.q.q.6.j g a a a a g a a a g g a a a g j 6.q.q.q.q.q.q.q.q.q.q.q.q.q.q.q.q.q.q.q.q.q.q.q.q.q.q.q.w.",
"q.q.q.q.q.q.q.q.q.q.q.q.q.q.q.q.q.q.q.q.q.q.q.q.q.q.q.q.q.q.q.<.j j g a g a a a a a a a a a a g g j j <.q.q.q.q.q.q.q.q.q.q.q.q.q.q.q.q.q.q.q.q.q.q.q.q.q.q.w.",
"q.q.q.q.q.q.q.q.q.q.q.q.q.q.q.q.q.q.q.q.q.q.q.q.q.q.q.q.q.q.q.6.P j a a a a a a g a a a a a a a a j P 6.q.q.q.q.q.q.q.q.q.q.q.q.q.q.q.q.q.q.q.q.q.q.q.q.q.q.w.",
"q.q.q.q.q.q.q.q.q.q.q.q.q.q.q.q.q.q.q.q.q.q.q.q.q.q.q.q.q.q.<.j j g a a a g a a a g a a a a a a a g j j <.q.q.q.q.q.q.q.q.q.q.q.q.q.q.q.q.q.q.q.q.q.q.q.q.q.w.",
"q.q.q.q.q.q.q.q.q.q.q.q.q.q.q.q.q.q.q.q.q.q.q.q.q.q.q.q.q.q.<.j j a a a a a a a a a a a a a a a a a j j <.q.q.q.q.q.q.q.q.q.q.q.q.q.q.q.q.q.q.q.q.q.q.q.q.q.w.",
"q.q.q.q.q.q.q.q.q.q.q.q.q.q.q.q.q.q.q.q.q.q.q.q.q.q.q.q.q.<.g j j p 4 a a a g a a a g a a a a a 4 p j j g <.q.q.q.q.q.q.q.q.q.q.q.q.q.q.q.q.q.q.q.q.q.q.q.q.w.",
"q.q.q.q.q.q.q.q.q.q.q.q.q.q.q.q.q.q.q.q.q.q.q.q.q.q.q.q.q.<.N I j a u a a a a a a a a a a a a a u a P P j <.q.q.q.q.q.q.q.q.q.q.q.q.q.q.q.q.q.q.q.q.q.q.q.q.w.",
"q.q.q.q.q.q.q.q.q.q.q.q.q.q.q.q.q.q.q.q.q.q.q.q.q.q.q.q.<.g j I P p 4 a a a a a g a a a a a a a 4 p P I j g <.q.q.q.q.q.q.q.q.q.q.q.q.q.q.q.q.q.q.q.q.q.q.q.w.",
"q.q.q.q.q.q.q.q.q.q.q.q.q.q.q.q.q.q.q.q.q.q.q.8.^ J Z z b j j I P i * 4 u a a a a a g a a a u 4 * i P I N j f F 0.q.q.q.q.q.q.q.q.q.q.q.q.q.q.q.q.q.q.q.q.q.w.",
"q.q.q.q.q.q.q.q.q.q.q.q.q.q.q.q.q.q.q.q.9._ ' ' ) Z w s j a i 8 N E U P W a.y.U g a g U y.a.W P U E N 6 i g j f M Z 3.q.q.q.q.q.q.q.q.q.q.q.q.q.q.q.q.q.q.q.w.",
"q.q.q.q.q.q.q.q.q.q.q.q.q.q.q.q.q.8._ | o. .` ( S l w s g a 4 X . $ .   X * * p a u a 0 * * X   . $ . X 4 a g s l z l >.q.q.q.q.q.q.q.q.q.q.q.q.q.q.q.q.q.q.w.",
"q.q.q.q.q.q.q.q.q.q.q.q.q.q.8./ `  .X. .' / D B l 9 w f g a ; X                     = =               X ; a g f w 9 6 e 2.q.q.q.q.q.q.q.q.q.q.q.q.q.q.q.q.q.w.",
"q.q.q.q.q.q.q.q.q.q.q.q.5.^ ` ' ' ) ^ F H B l w 9 9 d g a u O                       = =                 O u a b e 7 7 6 :.q.q.q.q.q.q.q.q.q.q.q.q.q.q.q.q.q.w.",
"q.q.q.q.q.q.q.q.q.q.3.Z ^ ( / J F ^ _ ` ` J B y 8 w f s $                                                   + e l k q e S D 4.q.q.q.q.q.q.q.q.q.q.q.q.q.q.q.w.",
"q.q.q.q.q.q.q.q.q.>.x F H G ^ _ '  .o.O. .` H z w w f p X                                                   X p f e & , c D 5.q.q.q.q.q.q.q.q.q.q.q.q.q.q.q.w.",
"q.q.q.q.q.q.q.q.q.1.l c Z J _ } X.O.#.@.X.` D 9 5 e f f e s =                                           O r e f f e 3 * e c M 3.q.q.q.q.q.q.q.q.q.q.q.q.q.q.w.",
"q.q.q.q.q.q.q.q.>.e k l Z ^ ) ] ..o.+.O..._ Z 5 5 r u g r.g.a.! I g =                           = g I ! a.g.r.g r e 6 7 q l z 3.q.q.q.q.q.q.q.q.q.q.q.q.q.q.w.",
"q.q.q.q.q.q.q.q.>.8 w l S ^ ) ' } ..o.o.| ( y * 8 8 7 r R d.p.E j a =                           O a j E p.d.R r 7 w w * , w k z 2.q.q.q.q.q.q.q.q.q.q.q.q.q.w.",
"q.q.q.q.q.q.q.q.:.6 w c S ^ ) ' }  .X.X.} H 9 3 6 q a a 1 1 O                                           = 1 1 a a 7 6 * * 8 e l 2.q.q.q.q.q.q.q.q.q.q.q.q.q.w.",
"q.q.q.q.q.q.q.q.:.6 k B G ( ) ` { | ..X.{ x # * q a j j a O                                               = a j j a i 3 # * 9 e 1.q.q.q.q.q.q.q.q.q.q.q.q.q.w.",
"q.q.q.q.q.q.q.2.e 6 e c G ( _ ` ] } ..X./ 9 X = a j j g a u =                                           O u u g j j a = X X   $ >.q.q.q.q.q.q.q.q.q.q.q.q.q.w.",
"q.q.q.q.q.q.q.2.e 6 l B G ( _ ' ] }  .{ m X = a j j g u u u : $ + + $ + + + $ X       X $ $ + + + + + $ ; u u a j I P 4 X     $ :.q.q.q.q.q.q.q.q.q.q.q.q.q.w.",
"q.q.q.q.q.q.q.>.8 6 l Z G ( _ ` ] } X._ 9 X > P P j g a 7 < & # # $ + + + + .           . + + + + $ # # ; u 7 q g I I g = X . $ w 2.q.q.q.q.q.q.q.q.q.q.q.q.w.",
"q.q.q.q.q.q.q.:.6 8 x A G ( _ ` ] | { m X   > g j Y Q e.~ e.r.r.0.] ~ ~ e.e.Q E I P I E W e.e.~ ~ ~ e.r.r.e.~ ~ Q E U P s $ X e A m 2.q.q.q.q.q.q.q.q.q.q.q.w.",
"q.q.q.q.q.q.2.l e l Z F J ^ _ ' ] ` H 9 # * 7 j ~ i.s.g.j.l.l.l.l.k.k.k.k.h.g.s.t.Q t.s.g.h.k.k.k.k.l.l.l.l.k.h.s.i.~ j 7 8 7 e G G v ,.q.q.q.q.q.q.q.q.q.q.w.",
"q.q.q.q.q.q.2.l l M G ( ) ' ' ' ` ( l 3 6 8 * p I E Q ~ r.u.f.s.u.y.r.Q U j u u u u a u a g U Q r.y.i.a.u.t.t.r.t.r.Y 0 3 w 5 3 z G D e ;.q.q.q.q.q.q.q.q.q.w.",
"q.q.q.q.q.q.2.l c G ( ) ' } | ' ( Z 9 * w e &           X p j I P g u =                       = a g V I P a =           $ w w * 8 Z F M 2.q.q.q.q.q.q.q.q.q.w.",
"q.q.q.q.q.q.1.l c A F ^ / _ ) ( H l # 5 w e &           X ; a a a a =                           O u a a a ; X           $ w w * 3 y c c l 3.q.q.q.q.q.q.q.q.w.",
"q.q.q.q.q.q.3.x z c B F ^ / ^ F B 9 * 6 9 6 * X                               X % + % X                               o * 8 6 1 * 5 l c c 2.q.q.q.q.q.q.q.q.w.",
"q.q.q.q.q.q.5.D H J ^ ( / ^ F D y ; 1 6 6 1 ; > > > > = = = = = = = = = = = = = = = = = = = = = = = = = = = = = u > O O = : 6 < ; q w w l l 3.q.q.q.q.q.q.q.w.",
"q.q.q.q.q.4.A ^ ( _ _ _ ( G Z c d 7 6 6 : > u > O = = = = = = = = = = = = = = > ; = & % O O O = = = = = = = = = = = ; > u u ; % % > 7 6 6 w 1.q.q.q.q.q.q.q.w.",
"q.q.q.q.4.A ^ ( ` { { ` / D c l < < 6 1 0 > = = = = = O = = = = = = = O = = > = = = > = > = = = = = = = = O = = = = = = > u > = O . $ 1 6 6 :.q.q.q.q.q.q.q.w.",
"q.q.q.q.4.c M A J H F F Z B x r O   + 7 > = = = = = = = = = = O = = = = = = = > = = = = > = = = = = = = = = = = = = = = = O > u = O O - < 6 :.q.q.q.q.q.q.q.w.",
"q.q.q.q.4.S J ^ H F Z B z e w 7 - $ % & - = = O = = O = = = = = = = = = = > > = = = = > > = = = = = = = = = = = = O = = = = % 2 u = % $ * :.q.q.q.q.q.q.q.q.w.",
"q.q.q.4.S ^ / ) ) ^ H S c l e 1 % - = = = = = = = = = = = = = = = = = = = = > = > > > = > = = = = = O = = = = = = = = = O = = = > > - % , :.q.q.q.q.q.q.q.q.w.",
"q.q.4.S J G D A A B c x z l e 5 O = = = = = = = = @ % = = = = = = = = = = > > ; = > = ; > = = = = = = = = = = = @ @ O = = = = = = = = O , ;.q.q.q.q.q.q.q.q.w.",
"q.4.S D Z M x z z z z l e w * # O O = = = = = = = = = = = = = = = = = = = = = = = > ; = > = = = = = = = = = = = = = = = = = = = = = o = -.q.q.q.q.q.q.q.q.q.w.",
"q.4.B M M Z A Z B x z z l e 3 X O O = = = = = = = O = = O = = = = = = = = = = = ; > > = = = = = = = = = = = = = = = = = = = = = = O O O =.q.q.q.q.q.q.q.q.q.w.",
"q.4.B F ( ' ' ) ^ D B c m x <   . % = O = = O = = = = = = = = = = = = = = = > - - u - - > > = = = = = = = = O = = = = = = = O = = % .   &.q.q.q.q.q.q.q.q.q.w.",
"4.S / ' ' ( ^ D A Z B x z y &   O = = = = = = = = = = = = = = = = = = = = = > = = > > = = = = = = = = = = = = = = = O = = = = = = = O   L q.q.q.q.q.q.q.q.q.w.",
"D / _ / ^ F B x l e e e e q =   O = = = O = = = = = = = = = = = = = = = = = > = = u > = > > = = = = = = = = = = = = = = = = = = = = O   O ,.q.q.q.q.q.q.q.q.w.",
"F / ^ F Z M x l x B B Z B k o   O = = = = = = = = = = O = = O = = = = = > > > = = u > = = > = = = = O = = = = = = = = = = = = O = = @ X @ ;.q.q.q.q.q.q.q.q.w.",
"F ^ S c k z S ^ J J ^ J F k . . O = = = > = = = = = = = = = = = O = = = = > = = > > u = = > > = = = = = O = = = = = = = = > = = = = O   . *.q.q.q.q.q.q.q.q.w.",
"F S c l S / ) _ ] { { ' ^ t X   = = = = = = = = = = = = = = = = = = = > > > > = > > > = = > > > = = = = = = = = = = = = = = = = = = O X   r 3.q.q.q.q.q.q.q.w.",
"Z x M ( [  .X.o.O.X...| K >   . @ = = = = = O = = = = = = = = = = = > = = = > = = > > = > > = = > = = = = = = = = = = = O = = = = = % .   > n B 3.q.q.q.q.q.w.",
"c c / } ..+.#.+.@.@.o...T >   O = > = = = = = = O = = = = = = = = = > = = > = > > u u = = > = = = = = = = = = = O = = = = = = = = & - .   > C G B 3.q.q.q.q.w.",
"c ( | @.%.@.o.O.@.$.@.o.K =   O = = = = = = = = = = = = = = = = = > = = = = = = u u u = = = = = > > = = = = = = = = = = O = = = = = % @   = m / F Z c c c M ! "
};
