/* XPM */
static char *c674645954714f92bc6e35268a5ffc6fAjaeBCFgvtMZzMG2[] = {
/* columns rows colors chars-per-pixel */
"64 64 181 2 ",
"   c gray12",
".  c #202020",
"X  c gray13",
"o  c #222222",
"O  c gray14",
"+  c #252525",
"@  c gray15",
"#  c #272727",
"$  c #282828",
"%  c gray16",
"&  c #2A2A2A",
"*  c gray17",
"=  c #2C2C2C",
"-  c #2D2D2D",
";  c gray18",
":  c #2F2F2F",
">  c gray19",
",  c #313131",
"<  c #323232",
"1  c gray20",
"2  c #343434",
"3  c #353535",
"4  c gray21",
"5  c #373737",
"6  c gray22",
"7  c #393939",
"8  c #3A3A3A",
"9  c gray23",
"0  c #3C3C3C",
"q  c gray24",
"w  c #3E3E3E",
"e  c #3F3F3F",
"r  c gray25",
"t  c #414141",
"y  c gray26",
"u  c #434343",
"i  c #444444",
"p  c gray27",
"a  c #464646",
"s  c gray28",
"d  c #484848",
"f  c #494949",
"g  c gray29",
"h  c #4B4B4B",
"j  c #4C4C4C",
"k  c gray30",
"l  c #4E4E4E",
"z  c gray31",
"x  c #505050",
"c  c #515151",
"v  c gray32",
"b  c #535353",
"n  c gray33",
"m  c #555555",
"M  c #565656",
"N  c gray34",
"B  c #585858",
"V  c gray35",
"C  c #5A5A5A",
"Z  c #5B5B5B",
"A  c gray36",
"S  c #5D5D5D",
"D  c gray37",
"F  c #5F5F5F",
"G  c #606060",
"H  c gray38",
"J  c #626262",
"K  c gray39",
"L  c #646464",
"P  c #656565",
"I  c gray40",
"U  c #676767",
"Y  c #686868",
"T  c DimGray",
"R  c #6A6A6A",
"E  c gray42",
"W  c #6C6C6C",
"Q  c #6D6D6D",
"!  c gray43",
"~  c #6F6F6F",
"^  c gray44",
"/  c #717171",
"(  c #727272",
")  c gray45",
"_  c #747474",
"`  c gray46",
"'  c #767676",
"]  c #777777",
"[  c gray47",
"{  c #797979",
"}  c gray48",
"|  c #7B7B7B",
" . c #7C7C7C",
".. c gray49",
"X. c #7E7E7E",
"o. c gray50",
"O. c #808080",
"+. c #818181",
"@. c gray51",
"#. c #838383",
"$. c #848484",
"%. c gray52",
"&. c #868686",
"*. c gray53",
"=. c #888888",
"-. c #898989",
";. c gray54",
":. c #8B8B8B",
">. c gray55",
",. c #8D8D8D",
"<. c #8E8E8E",
"1. c gray56",
"2. c #909090",
"3. c gray57",
"4. c #929292",
"5. c #939393",
"6. c gray58",
"7. c #959595",
"8. c gray59",
"9. c #979797",
"0. c #989898",
"q. c gray60",
"w. c #9A9A9A",
"e. c #9B9B9B",
"r. c gray61",
"t. c #9D9D9D",
"y. c gray62",
"u. c #9F9F9F",
"i. c #A0A0A0",
"p. c gray63",
"a. c #A2A2A2",
"s. c gray64",
"d. c #A4A4A4",
"f. c #A5A5A5",
"g. c gray65",
"h. c #A7A7A7",
"j. c gray66",
"k. c #A9A9A9",
"l. c #AAAAAA",
"z. c gray67",
"x. c #ACACAC",
"c. c gray68",
"v. c #AEAEAE",
"b. c #AFAFAF",
"n. c gray69",
"m. c #B1B1B1",
"M. c #B2B2B2",
"N. c gray70",
"B. c #B4B4B4",
"V. c gray71",
"C. c #B6B6B6",
"Z. c #B7B7B7",
"A. c gray72",
"S. c #B9B9B9",
"D. c gray73",
"F. c #BBBBBB",
"G. c #BCBCBC",
"H. c gray74",
"J. c gray",
"K. c gray75",
"L. c #C0C0C0",
"P. c #C1C1C1",
"I. c gray76",
"U. c #C3C3C3",
"Y. c gray77",
"T. c #C5C5C5",
"R. c #C6C6C6",
"E. c gray78",
"W. c #C8C8C8",
"Q. c gray79",
"!. c #CACACA",
"~. c #CBCBCB",
"^. c gray80",
"/. c #CDCDCD",
"(. c #CECECE",
"). c gray81",
"_. c #D0D0D0",
"`. c gray82",
"'. c #D2D2D2",
"]. c LightGray",
"[. c gray83",
/* pixels */
"M M M U @.] ] 1.0.r.f.j.B.W.E.B.p.f.9.] ]  .@.@.1.5.1. .J F F C f l l C / ] ] W U M C C W  .@.&./ J M i e 1 5 b F / =.p.1.J M l ",
"C F 5.K.W.W.K.P.P.S.f.p.9.9.p.B.B.S.P.P.K.E.W.v.j.n.S.W.P.&.M l u e U n.).S.n.r.v.B.j.n.E.S.n.B.P.W.E.P.K.B.v.B.P.W.W.P.W.v.J M ",
"C =.j.9.9.5.5.&.&.5.=. ./ W ] @.=.@.=.&.@.@. .=.&.{ @.9.j.P.&.F U { p.v.9.1.1.p.p.p.v.v.0.1.@.{ &.1.r.0.0.v.B.j.p.p.9.=.9.S.r.b ",
"J 5.9.=.{  . .{ { &.@.&.=.{ / { 1.@.{ @.] Y W / / / ] W  .v.j.U / 0.0.=.1.5.1.{ / Y / / {  .{ U W / ] ]  .]  .@.@. . .{ W &.n./ ",
"C ] { &.@.{ @. . . . .{ { &. ./  .1.=.@.&.{ ] { { / { &.] 5.n.W &.f.@.]  .{ W  . .] / W / W @.=.@./ W / ] { ] W W {  .@. . .p.5.",
"Y W ] &.&./ ] ] { =.&.=.@.=.&.] ]  .=.&.=.@. .{ ] Y U Y W =.f./ U / { / { &.&.Y / @.{ { ] / / { {  ./ W Y / / ] Y W { / { ] 5.9.",
"b /  .{ &.1.@.@. . . .&.@. .{ ] / ] &.=.@.&.&.@.=.=.] { / ] f. .b W { / ] ] &.9. .W Y U W ] ] ] ] / / { ] W Y ] / W @. .{ / @. .",
"l J &. .&.=.5.@.] ] / {  ./ ]  .@.{ { @.{ / { &.@.&.{  .@.] r.=.C / 1. . .{ { =.&.W W ] / / / W / { ] /  .{ Y Y W W @.&.{  .=.] ",
"f f { { ] {  .@.&. .@.{ @.@. .{ { { { =.{  .] { W &.@./  . .@. .l M @.&.@.@.{ ] @.&.] ] ] { @.@.{ ] / Y ] &.&.@.{ W / ]  .{  .Y ",
"f 5 b ] { ] &. . .@./ ] @.@.] @.@. .{ {  .=. .{ /  .1.@.] / J C l 6 C 1.1.@.@. .@.&. . .{ / / / { { @./ /  . .@. .U W W Y W ] U ",
"J l 1 5 f i f b b f 6 5 e u i i l M Y J F J U W W F W / Y Y C f b f 5 b ] @. .]  .] / U ] / W W / Y U Y F F C l f e u i 6 6 l F ",
"M F b 5 * * 5 6 ; ; ; + * * + + * * + ; 1 1 6 u e u e 6 6 f l f f M f ; * 5 1 1 1 1 1 5 ; ; 1 5 6 u i i 6 ; + + * 5 ; 1 6 i l b ",
"{ / 1.9.5.&.&.=.5.p.0.=.] { =.1. .] / U b b l l f f b / =.&.@.@. .Y F F M U U C M U Y F M l b b i u e 1 6 e f b f f C { =.@. . .",
"E.E.P.W.).P.S.E.S.P.).W.)._.W.)._.).W.K.5.C M F F Y v.P.S.E.E.P.E.E.W._.).)._.).)._._.E.W.W.W.S.P.K.n.n.v.5.J C C F r.P.S.K.K.S.",
"&.@.1.9.0.9.=.=.r.0.9.j.v.v.f.9.9.0.0.j.S.9.M M C =.=.=.&.=.=.5.9.p.r.0.r.0.p.r.p.0.0.r.0.j.j.v.v.n.B.f.j.P.j.C F 5.1. .@. ./ { ",
"W { { ] @.@. . . .=.=.@.1.&.&.@.] W ] &.r.B.{ M Y @. .] W ] @. .@. .@.{ {  . . .{ / W / / { &.{ ] @.=.=.@.0.S. .Y 1.{ / { { W Y ",
"{ / { { &.@.{ ] ] Y / / ] { { =.1.&. .@.9.v.p.M  .&.@. .&.{ { W { @./ / / @.=.&.{ @.@. ./ W W  .] Y { =.@.{ r.5.F  .@.Y / @.&.{ ",
"/ W W ] @. .{ ]  .@. .@.&.&.{ ] { ] / ] ] 9.v.Y F / ] ] / ]  .{ W ] { @./ ] &.@.] / W @.]  . .] W ]  .&.=.{ &.5.M U &.] W / { ] ",
"] { ] W / @.&.{ { ] / ]  .@.{  .&.=.1. .{ =.0.] J @.@.@.@.{ &.&. . ./  .@.W / ] / &.@.@.] / ] / W W { &.&.@.=.&.C F @. .{  .@. .",
"/ ] / { {  .&.&.&. . .{ =.5.&.{ ]  .@.@.{ =.5.Y U ] =.{ / W { =.=.@.@. . .] ] &.{ { =.&.@.{  . . .Y W  .=.=.5.1.C J /  .{ /  . .",
"=.&.@.@. .{ ] ] { { { / W { @.&. .{  . ./ / ] b M Y { {  .{ W W { @.W  .=.=.&. . ./ ]  .{ ]  . .@. .W / { &.5.&.M U =.1.=.@.{ 1.",
"1.5.5.=.&. .{ { @.&.{ ] /  . .{ @.&. .{ / F C i i l W { ] {  .] ] @.{ { =.=.=. .@. .@. .] {  . . . .] W / W ] W b C @.1.&.5.=.&.",
"{ ]  .5.=.&.&. .]  . .@.&.=.1.=.&.{ @. .{ Y b f e f J ] / ]  .{ { @.{ Y ]  .@.@. ./ { &.&.&.=.&.=.&.{ / Y C F F C u C ] { {  .{ ",
"b U C F F C C J J J U Y J U Y J U F J M f b b b l 5 e M C C F M l M J M C U / / W ] ] / ] ] @.] J M i f 6 l F M M i 5 i b l l b ",
"; o * 1 5 6 e e 6 ; ; 1 6 * * ; ; f u u f F M b b f 5 * 1 ; * * 1 * + ; 1 ; ; 6 6 5 f f e e 1 1 1 * 5 6 f l l l M b e * + * * ; ",
"l M l i b F U J M b f u i f f l u b U / { @.@.] Y F U J F U Y W U J J b u l M b l 6 * 6 i u b C Y 1.9.r.9.=.{ / W C f i f i u f ",
"1.E.W.K.K.S.P.W.).E.P.K.S.E.E.E.P.v.K.)._.).W.P.W._.).).W.)._.[._._.E.n.{ f C b l J 5.v.S.K.P.).W.).E.E.E.E.).W.S.v.@.F b M b M ",
"f.f.j.n.n.j.v.n.B.n.n.r.p.p.j.v.f.p.r.r.p.p.f.r.9.j.j.f.5.0.0.r.f.f.j.B.P.&.l l F 0.v.B.B.j.f.f.p.1.1.5.r.p.f.p.f.S.W.j.U M l @.",
"=.] Y Y { &.=.@.&.=.@. .{ ] ] &.&.@.@.{  .{ 1.9.1.&.&.5.@.] ] / { ] { &.f.B.] b &.1.&./  .@.&.{ ] { ] Y / ]  .@.@.@.r.v.0.l U &.",
"] / W W / ]  .{ { =.1.@. . .W  .1.=.&.&.@. . .1.=.=.&.=.5. .] ] / W / ]  .r.9.M ] { / W ] ] { ] / {  .] U U F W / /  .9.n.U b Y ",
"Y { { @.@./ { &.&. .&.&. . .&. . .=.=.1.1.@. .=.1.=.&.{ @.&.{ W / / Y U / =.5.J F W  .W / ]  .&. .] / / ] ] W W W Y / &.f.{ b C ",
"Y { ]  .@.{ / / @.{ { { &.]  .{ / ]  .@.&.=.{ { @.&. .{ {  .@.&.{ { / W { @.{ C F Y ] { / W  . ./ ] ] ] W { ]  .] Y W =.p. .C J ",
"@.] ]  .@. . .@.@.=.&.] ] / / @.] / ] { ] ] ] / / { &.&. .@.@.=.&.=.1.@.&.9.@.Y ] @.] W ] Y W @.@.@. .@. .{ / ] =.@. .@.r. .M / ",
"{  .] Y ] / { { {  .&.&.@.{ / { =./ U J W W { W / / Y Y / {  .&.1.@.@. .{ =.] C Y =.1. . .] Y ] @.@.@. .@. .@.{  .@. . .1./ i F ",
"U W ] ] ] / /  .&.@.@.{ {  .] / ]  . .{ { {  .&.=.=.=. .] { ] W {  .] ] ] { J i f U  .&.@.&.{ Y / ]  .]  .] ] { { ] / { { U f i ",
"b W / W Y ] { { @. . .{ ] { { {  .@.1.&. .@.&. . .&.=.=.{  . .] / { ] W M b b f 6 l Y / / { { Y Y /  .W / ] / W Y ] U J F M b e ",
"5 M Y / Y F M b l M J Y J J M C C l b M l f l F b b C J M M J W W W U F F F M M u 1 5 u e 5 u i f l C U U W Y U U F f l C F C u ",
"e + + * ; + o   o o + 1 1 6 1 * ; * + + + * * 1 5 + + ; 5 6 1 5 6 i b b F F b l l i e 1 1 5 1 e ; * e e 1 * ; 5 1 e b M C M M M ",
"/ F C M b J / { &.&. .W U U U M l b M b M b b F {  ./ W Y F M f i i b Y ] @.=.5.9.5.0.r.0.0.0.r.9.@.] / W F u u f u i l M W &. .",
"W.E.E.E.W.W.E.K.W.P.W.W.E.W.).P.9.F M b b C r.S.K.[._._.[.E.S.B.B.P.E.E.P.K.K.E.K.B.S.P.K.S.K.K.E.E.K.E.).E.j.Y l l l b 1.K.P.P.",
"p.r.p.r.0.0.r.0.5.=.@.9.r.r.r.j.K.v.F b C r.p.0.9.9.0.0.r.f.j.v.f.p.p.0.5.r.0.=.5.9.&.@.1.&. .&. . .5.&.5.p.B.E.=.M C 5.f.9.5.p.",
"1.=.@.=.&. . . .{ { {  .{ W /  .5.v.5.b  .0.1.] / W / ] / { { @.{ { { { / { @./ Y W W Y W W J /  ./ / ] / ] { f.n.Y Y &. ./ / @.",
"&.1.1.1.5.&.@.@.@. . ./  .] / ] &.f.B.U W ] ] W ] /  .@.@. ./  .{ ]  .@.{ W / { W Y J F Y Y U Y W / U J Y / W @.r.{ U ] &.1.&.=.",
"&.&.=.1.5.1.=. . .@.=.{ {  . .{  .&.f.Y F U @./ / ] ] { { ] ] { &.&.{ &.1. ./  .{ { Y J W ] U W / U W U Y { { @.0.{ b Y  .&.@.@.",
" .] / / ] @.=.1.=.&.{ @.=.] / / W { 1.Y U W  .@. .&.@.&.&.@.@.@.{  . .{ ] @. .@.@.@.1.Y M W ] Y  .] {  .] ] /  .1.W f U  . .&.@.",
" .@.{ ] ] @.5.=.@.1.=. .&.&.] &.] @.r.Y F Y ] @.{ @.@.=.&.&.=.&.=.@./ {  .&. .{ @.{ =.=.] J W Y {  . .@.@.] / ] 5.] f Y  . .{ { ",
"{ &.=.1.&.{  .=.&.@.@. .{  .{ {  .W =.M e Y @. .]  .@.{ &.@. ./ / @./ Y U /  .] @.] { / U U W W ] @.@. . .@.&.] { W u b {  . .] ",
"]  .=.&.=.{ { @.@. .{ {  .{ ] /  .] J F i l W @.{ / @. ./ { ] W W  .{ { { { / W { {  .{ @. .=. .{ ] ] ] ] { ] W U J f u J ] ]  .",
"@./ Y W ] &.@. . .&. .@.5. . .&.@.{ U f l e u U  .] W { ] / { { W / ] ] / W W J l i l C l C U W / W / ] U C f u f l l 6 u Y {  .",
"U F l u 6 i b M J U W J / @.Y F C F J M b u * ; 6 6 5 1 1 ; 1 6 ; ; i i 6 ; ; e 6 e f l e u u f l l e 6 5 * 6 f M C M f 1 e C Y ",
"* ; + + + o o o * ; 1 6 6 b i 1 u f C F M l u 6 1 5 6 e u u u e 6 i b U Y / / U F C M Y J b 6 ; 1 * + + 5 i l l b M C C f 1 * + ",
"W / @. .W J J F M F U Y J F W { =.5.9.=.1.5.r.p.f.j.j.n.j.B.K.P.S.v.S.E.W.E.W.B. .U J C J W &.=.=.0.5.5.n.v.0.Y b l l M C b M U ",
"W.W.)._._.).W.P.K.W.W.)._.).).[.E.K.K.E.E.B.n.S.j.f.v.v.n.j.0.j.f.r.0.5.p.p.f.S.B.Y C l / K.P.S.P.P.W.S.n.P.W.P.{ b b b l W v.W.",
"5.9.r.r.p.p.p.v.j.r.=.&.1.1.=.9.r.9.=.&.5.1.@. .&.] ] =.&.@.@.&.=./ Y U U / &.9.v.@.b Y 1.&.@.{ @.5.9.9.5.1.9.v.K./ M b F p.j.5.",
"{  .@.=.=.=.@.@.&.@./  . .@.{ ] @.&.=.{ { { W J { ] / W {  . . .@.@./ { ] U ] =.f.n.C &.9.&.W J C ] ] { @.&.@. .p.p.C M @.=.{ @.",
" ./ { { @.&.&. .&.&.{ / W {  .{  .&.&. .&.@.@.W W { / ] W @.@./ W ] { {  . .U @.9.j./ Y @.&.=./ J Y ] ] { ] &. .1.p.{ U @. .{ ] ",
"&.&. .@.] / / ] { @. .&.&. .{ ] @. .@.] ] { { { W / /  .] ]  . .]  .{ @.{ @.@./ 1.r.Y C &.1.&.5.&.@.@. . .@.@.&.=.5. .F Y Y  .] ",
"{ @.] / ] Y W W / { {  .{ {  ./ / ]  . .{ ] ] ] &. ./ W U /  .=.=.@.{ { &.{ ] J Y { C b Y 1.r.r.5.=.@.{ { @.&.1.9.0.@.M Y W ] ] ",
"{ &. ./ { { ] / / W W { @./ / ] {  .@.1.=.=.&.@.{ &.&.] F / { @.@.&.@. . .@.@.W ] =.U i C Y =.=.=.@.&.&. .&.&.&.1.f.1.l M / { { ",
" .@.=. .] ] / /  .] / / ] ] { / W / { @.@.&.@.{ ]  .@. .] F F  . .1.&.&.{ / @.=.1.1.U i b ] &.1.=.@.@.1.1. . .=.5.0.&.F J { =.&.",
"] @.@.] ]  .@.] { ] / W  . .@.&.&.{ / @.@.@.=.=.&. .@.5.5.9. .@. .{  . . .{ =.@.&.9.Y C l J @.1.&.=.@. .@.@. .] @.9.{ f i F / { ",
"] { @.&. . .&.@.@.&.{ ] {  . .{ @.@.] / &. .@.=.@.@.&.{ @.=.&./  .@.&.&.&.@.@.] { W b b f f F  .=.1.5.=.=.&. ./ Y ] U M e e F { ",
"l f M F M C F U J C b M u 6 u f l l b b F J F U / / ] Y F J M J b l M M l l C b M J J J f ; 5 i M F C U / W Y C l l l b f 1 5 f ",
"e ; + ; 1 ; 6 ; * ; 1 1 i f 5 * 6 e 1 ; + * o ; ; 6 6 6 ; o + * 1 6 * o o ; 1 u M F F C M i e 5 ; ; ; 5 6 l M e u M l l b l ; 5 "
};
