/* XPM */
static char *_3639a615a974018eeca8e7c199c42a7GRnKlrdTIm4jZ8nv[] = {
/* columns rows colors chars-per-pixel */
"64 64 235 2 ",
"   c Black",
".  c #000000",
"X  c #0A0100",
"o  c #0D0D0B",
"O  c #00000D",
"+  c #1A0301",
"@  c #120100",
"#  c #11120F",
"$  c #080818",
"%  c #171813",
"&  c #1B1C17",
"*  c #1C1D1C",
"=  c #141513",
"-  c #210200",
";  c #290402",
":  c #340200",
">  c #390300",
",  c #3A0E0B",
"<  c #311613",
"1  c #1E201A",
"2  c #22241D",
"3  c #322616",
"4  c #01012C",
"5  c #070725",
"6  c #11122D",
"7  c #0A0A36",
"8  c #12012A",
"9  c #1E2027",
"0  c #2B2D25",
"q  c #262724",
"w  c #362623",
"e  c #2F322A",
"r  c #35382D",
"t  c #32352C",
"y  c #343533",
"u  c #393C31",
"i  c #373A3A",
"p  c #252736",
"a  c #430300",
"s  c #4D0903",
"d  c #520500",
"f  c #5B0501",
"g  c #5A0B05",
"h  c #4D1510",
"j  c #630600",
"k  c #6B0800",
"l  c #670905",
"z  c #740600",
"x  c #7C0500",
"c  c #710D06",
"v  c #730E08",
"b  c #7D0B05",
"n  c #78120C",
"m  c #681A14",
"M  c #7B1611",
"N  c #7D1A15",
"B  c #731814",
"V  c #663516",
"C  c #70251A",
"Z  c #490D31",
"A  c #52352C",
"S  c #543A35",
"D  c #50312A",
"F  c #7A2925",
"G  c #76302B",
"H  c #683936",
"J  c #783936",
"K  c #6A2C28",
"L  c #611D24",
"P  c #384D2D",
"I  c #764F1E",
"U  c #43453D",
"Y  c #56413B",
"T  c #73403C",
"R  c #69732F",
"E  c #010151",
"W  c #1E2045",
"Q  c #2C2E4F",
"!  c #262845",
"~  c #2F3247",
"^  c #2B2D51",
"/  c #282A59",
"(  c #333558",
")  c #0A0B6B",
"_  c #1B1C77",
"`  c #1B1C77",
"'  c #0A0B76",
"]  c #1E206F",
"[  c #1E2062",
"{  c #222466",
"}  c #380456",
"|  c #5B1E43",
" . c #464840",
".. c #4C4E4B",
"X. c #454743",
"o. c #564848",
"O. c #4F524C",
"+. c #525252",
"@. c #5C5A56",
"#. c #5B5D5A",
"$. c #545657",
"%. c #534F4E",
"&. c #654C48",
"*. c #774947",
"=. c #6F514F",
"-. c #67504D",
";. c #685754",
":. c #775958",
">. c #63615E",
",. c #7A7050",
"<. c #484A6C",
"1. c #636563",
"2. c #676967",
"3. c #6C6C6C",
"4. c #6D6765",
"5. c #717271",
"6. c #7C7C7C",
"7. c #787777",
"8. c #756B6C",
"9. c #830500",
"0. c #8D0400",
"q. c #840B07",
"w. c #930300",
"e. c #9B0200",
"r. c #990B09",
"t. c #821B17",
"y. c #841E19",
"u. c #871511",
"i. c #931412",
"p. c #9D1E1D",
"a. c #961917",
"s. c #8B180C",
"d. c #A40200",
"f. c #AC0200",
"g. c #A80B09",
"h. c #B40100",
"j. c #BC0100",
"k. c #B40D0D",
"l. c #A41917",
"z. c #A61716",
"x. c #B91E1D",
"c. c #B61716",
"v. c #A31B0A",
"b. c #8B221F",
"n. c #88201B",
"m. c #93211F",
"M. c #9B270E",
"N. c #8D2522",
"B. c #852E2A",
"V. c #942B29",
"C. c #982F2D",
"Z. c #952723",
"A. c #89332D",
"S. c #98302E",
"D. c #9D3432",
"F. c #963837",
"G. c #8E3635",
"H. c #A82828",
"J. c #B42727",
"K. c #A23737",
"L. c #A83E3E",
"P. c #A43A39",
"I. c #AF3535",
"U. c #A02F1D",
"Y. c #C20100",
"T. c #CB0000",
"R. c #C50B0B",
"E. c #D40000",
"W. c #DD0000",
"Q. c #D40C0C",
"!. c #C81313",
"~. c #D21414",
"^. c #C92526",
"/. c #C63536",
"(. c #8E5038",
"). c #8B504B",
"_. c #AC4141",
"`. c #A64646",
"'. c #B24647",
"]. c #B54B4C",
"[. c #BC5354",
"{. c #BF5859",
"}. c #B25152",
"|. c #A95556",
" X c #856867",
".X c #867A7A",
"XX c #97706F",
"oX c #AB7576",
"OX c #C25C5E",
"+X c #C56162",
"@X c #CB6A6C",
"#X c #C86768",
"$X c #CE6E70",
"%X c #D27375",
"&X c #D6797B",
"*X c #E36666",
"=X c #558C33",
"-X c #4AA239",
";X c #01018A",
":X c #090985",
">X c #151685",
",X c #0D0E96",
"<X c #0A0A9F",
"1X c #000097",
"2X c #16038A",
"3X c #0404AB",
"4X c #0000B5",
"5X c #1313BA",
"6X c #2A2B86",
"7X c #2B2BC1",
"8X c #3B3BC6",
"9X c #6666D2",
"0X c #7979D8",
"qX c #4E4ECC",
"wX c #838383",
"eX c #8E8D8E",
"rX c #898584",
"tX c #908F90",
"yX c #939293",
"uX c #9C9A9C",
"iX c #989698",
"pX c #868694",
"aX c #B28E8D",
"sX c #A7A5A7",
"dX c #B7B5B6",
"fX c #BBAFAE",
"gX c #B7A09D",
"hX c #CBAAA8",
"jX c #8686DC",
"kX c #9999E1",
"lX c #B1B1E8",
"zX c #CDCACA",
"xX c #CCCCF1",
"cX c white",
"vX c #EAEAF4",
/* pixels */
"                    X.y                                                                                 X.y                     ",
"                    3.2.                                                                                wX..                    ",
"                    2.@.                                                                                5...                    ",
"                    3.2.                                                                                wX..                    ",
"                    2.5.3.+.                                                                        3.3.5...                    ",
"                    1.2.6.5.                                                                        yX5.1...                    ",
"                    1.1.5.tX+.        y                                                 y         3.6.wX1...                    ",
"                    1.1.2.6.tX3.+.  $.2.                                                6.y   3.7.iXrX5.1...                    ",
"                      1.1.5.uXuXtX2.2.@.                                              +.5.1.7.uXyX5.5.;.H                       ",
"                      1.1.2.5.6.uXiXeX6.y         x x 9.e.e.e.e.e.e.e.w.x x f       ..3.eXeXuXuXeX1.1.@.w                       ",
"                      Y *.1.1.5.uXuXsXzX X9.e.e.w.0.h.j.E.T.W.W.W.E.T.E.h.f.9.9.e.r.F.uXzXuXuXyX5.1.;.T X.                      ",
"          ..+.          Y 1.1.2.6.uXsXzXzX|.T.W.T.d.f.w.Y.T.Y.Y.Y.Y.T.h.0.f.f.E.E.x.aXzXdXuXyX5.1.#.o.o.          1.y           ",
"          2.5.+.          1.1.1.2.6.uXsXdXoXE.W.E.h.f.d.j.W.E.E.E.E.E.f.d.h.h.T.W.^.sXdXuXyX5.1.1.;.K           3.5...          ",
"            2.5.1.y       A.1.1.1.2.5.6.uXoXW.W.E.j.T.j.T.Y.T.W.E.Y.Y.T.j.T.j.E.W.^.uXyX5.5.1.1.1.=.q.      ..3.5.+.            ",
"              2.6.wX3.1.H g.l.x.D.1.1.:.I.^.Y.Y.j.j.W.E.E.h.f.0.0.0.j.W.T.Y.E.E.Y.R./.L.1.1.:.x.p.l.i...3.5.rX5.+.              ",
"              1.2.6.yX5.*.j.w.Y.j.x.x.c.T.j.j.T.j.T.Y.Y.h.9.x k k z w.Y.Y.E.W.E.h.h.Y.j.x.x.c.j.h.j.c.2.6.yX5.1...              ",
"                ..2.5.:.!.T.w.0.h.h.e.h.w.j.E.W.E.W.E.E.Y.w.k k z e.d.j.E.W.W.W.E.T.h.f.e.Y.j.f.0.j.Q.D.2.5.#.i                 ",
"                z.p.l.!.W.W.Y.w.0.f.d.h.d.h.T.W.W.W.W.W.E.f.w.z d.h.j.E.W.W.W.W.W.E.h.d.z 9.9.0.f.T.T.Q.x.p.l.q.                ",
"              f.E.f.w.T.E.T.E.g.u.9.0.h.h.j.E.W.W.W.W.W.E.h.f.d.h.j.E.W.W.W.W.W.E.j.f.x k z r.i.j.W.E.E.h.0.j.T.z               ",
"            0.Y.j.h.h.h.j.h.j.a.y.k z 9.0.h.T.W.W.W.W.E.Y.T.h.h.j.T.T.W.W.W.W.W.E.f.x k c u.q.b.i.e.Y.j.h.Y.T.T.Y.f             ",
"          d.h.f.0.h.Y.E.E.T.g.y.v c t.t.y.i.w.Y.Y.W.W.E.j.W.T.j.E.W.T.T.W.W.W.E.h.q.t.t.y.y.k M a.f.E.E.T.Y.h.9.w.f.z           ",
"          j.j.T.h.j.E.W.W.T.a.b.t.N.K.V.L.D.u.0.h.Y.W.W.E.E.l.a.l.c.W.E.W.E.Y.h.q.y.V.K.V.D.t.y.b.z.W.W.W.T.h.h.h.h.w.          ",
"          0.h.T.E.h.T.E.j.p.V.L.K.m.z.N.V.y.b.u.q.a.i.g l.H.K.V.K.m.l.l.i.g i.q.N M N.V.N.V.V.L.K.m.z.Y.Y.j.j.W.j.f.j           ",
"          z 9.w.h.9.q.l.I.V._.].'.K.i.M b.N.K.b.y.V.(.P , u.U.R R r.l 3 R B.b.t.V.S.N.a.z.V._.].'.K.Z.I.i.9.w.h.9.x j >         ",
"        x k k z x c N.P.D._.[.+X]._.b.y.V.P.D.K.N.A.,.(.9.s.R -X=XI w.C =Xy.N.V._.'.D.M Z._.].[.+X'.P.D.D.t.u.x k k z w.f       ",
"      d.f.w.k k c y.V.'.].+X].OX@X+XL.K.V.'.].+XK.C 3 F I M.-X-X-XR v.R V h L.].+X]._.K._.[.@X#X[.[.+X_._.N.y.k k k x j.d.      ",
"      Y.E.Y.w.k b r.n n.D._.].[.%X[.].'.].@X$X%X#X}.B.B.(.n.V I (.V Z.).`.|.@X@X%X@X+X].].].+X@X].].].V.M q.r.k z d.Y.T.w.      ",
"    x w.Y.j.h.h.h.d.c N n M D.].[.].[.@X$X&X&X&X&X%X#X+X#X}.t.n.V.V.+X@X$X%X+X&X&X&X%X@X{.K.].].C.V.y.b.M x h.h.h.h.Y.h.9.f     ",
"    i.z 9.0.h.T.E.d.m *.M v N.D.].].[.&X&X%X{.{.{.{.+X&X&X@XK.V.L.].&X&X%X[.].{.{.+X&X&X@X_.]._.N.b.y.B.H z e.E.h.9.9.x v B     ",
"    v k k z 0.h.h.x m >.:. X*.F.XX*.N._.{.[.].[.+X[.$X&X&X#XD.P.C.K.+X&X%X@X@X+X].].OX{.].F. XXXB.=.=.;.-.k 9.j.d.k k k k g     ",
"    w.k k k z 9.x k m ..2.5.@.&.iX XF *.n.C.C.K.OX$X%X{.{.].D.{.N.V.[.%X+X%X{.].C.C.D.|.*.G eXrXY 1.1.#.S k z 9.x k k k z x     ",
"  f.Y.e.w.k k k k c N m J  .u 0 5.8.:..XT N.N.N.D._.[.].]._.S.].N.V.].[.].].C.V.N.N.A.8..X-.5.#.= e #.Y F t.M k k k k x Y.j.f   ",
"f.W.W.T.d.k k k k v y.g ; # o # ..#.O.5.@.A A S =.*.C.C.C.V.N.V.N.N.C.C.C.G.=.&.A A Y 2.2. . .y o q q D M y.v k f : z d.T.W.Y.z ",
"T.E.Y.j.d.k k k k k l + . o 1 . * u q #.U u u U 3..X*.N.N.V._.{.L.K.N.N.B.:.wX@.e & u ..O.& e % 0 r 0 e > v f : j d z 0.j.W.E.w.",
"h.j.h.f.x k k c F H d . . o r q 0 0 . q u u u U 2.5.%.w :.XX:. X:. XXXY w 2.5.@.0 o u u P 0 0 o u e # o + F H m k z w.x h.Y.j.0.",
"h.h.h.d.z e.e.i. XgXd o q 0 e 6 _ r q 2 # & u U 1.#.y & 2.5.3.wX1.2.5...# ..#.U r 0 u e & u 0 . 6 ) . @ a S fXH z d.d.x f.0.h.0.",
"h.h.j.Y.f.T.h.l.6.aXj h e & 0 $ Q e & r 1 o ~ _  .U r e  . .@.rX..#.i 2 0 t * # # 6 _ r 0 e % 1 O 7 3 d d e sX-.x h.d.9.T.h.h.0.",
"  j.E.E.h.j.h.l.2.:.f + o . % 0 u r 2 & r p ,X,Xu e & u ~ _ U O.u U r 2 & ~ E o 1 $ { >X>X` 0 r 1 o D f ; K eX-.x j.Y.f.W.j.e.  ",
"  T.Y.Y.E.T.h.g.p.a.j > o 1 5 _ e 6 ) o u ^ <X! & r 0 ~ >XQ ~ _ u u u r 0 ^ ;Xo r 0 i ] 1X4 6 ) % 2 < j a , G N d.j.E.h.j.j.e.  ",
"  j.h.j.W.E.j.T.h.d.k d . o 4 ,Xr W ;Xo u ^ ,Xr 0 u u ^ ,X~ ,X,X~ _ u u e 7 ;Xo u u u ^ ,X1 4 ;X5 ) + k j d z d.h.j.E.h.h.h.w.  ",
"  a.h.j.W.W.E.W.E.j.M d o 1 $ Q e 7 ,X0 u ^ ,Xu u u u ^ ,X^ 4X3X,X3X_ u ~ ' Q 0 u u e 7 ;Xo 4 ;X4 ;X+ k k k 9.E.E.E.E.h.h.g.B   ",
"    h.j.W.W.W.W.E.h.r.j s Z ) e % p ! 6 >X>XQ u u u ~ ,X3X,X4X4X4X4X,X~ >XQ u u e 6 ) 4 ;X. 4 ;XO 8 > > w.z f.W.T.W.E.h.h.w.    ",
"    h.h.Y.Y.T.W.E.z.J F &.o.! o o e 6 ;X<XQ u u u ~ ,X4X4X7XjX4X4X4X3X,X3X_ u u r 9 E ;X;X. 4 ;X@ K gXS M J j.W.T.h.w.h.h.0.    ",
"    E.T.f.0.h.T.~.XX.X;.6.dXX.. o +.pX4 4 & u u ~ ,X4X4X4X5X9XlXjX4X4X4X4X3X_ u u 0 4 <XW $ ) 8 h .XvX.X8.dX}.E.j.f.d.h.j.e.    ",
"      j.h.f.0.j.R.).eX1.6.sX<.' :X6X@.o q 0 u ~ ,X4X4X7XjX7XxXcXvXjX4X4X4X4X,Xu u r 9 E ) 4 ;X+ m 6.sX5.6.gXV.E.h.h.j.T.e.      ",
"      h.h.Y.h.h.Y.g.G H 5..XL } 4X;X% 0 u u ~ ,X4X4X4X5X9XxXcXcXcXvXjX4X4X4X3X_ ~ _ 0 $ [ ) 8 d l T eX;.F J.Y.E.j.T.h.j.0.      ",
"      E.T.h.h.0.h.Y.h.r.K F k l Z W . # & u i / ] 4X4X7XkX0XcXcXcXxX8X4X4X4X<XQ i Q r 2 7 2Xd z e.r.B.l.Y.T.Y.h.w.j.j.E.e.      ",
"      E.j.f.9.d.h.j.W.Y.w.z x : l h o q 0 u u ~ ,X4X7XkX9XxXcXcXcXvXjX4X4X4X,Xu u e & 0 4 2Xk x h.f.d.k.^.E.h.f.w.0.h.T.f.      ",
"        f.x z q.p.H.e.Y.R.H.f.x f + . # & u u i ] 4X5X8X8XxX0XxXqXqX8X4X4X4X,Xu ~ :X) r w Z z d.j.E.E.E.!.j.p.H.x z 0.e.        ",
"        f.e.d.h.r.u.r.z.Y.!.f.x j s > . . & u u i ] 4X7XkX9XkX8X7XjX4X4X<X] ,X~ ' 4 7 D g k z 0.h.R.^.E.j.h.g.k.h.d.h.0.        ",
"        h.f.w.j.h.f.q.b.Z.).J c M k N m > o  .5.O.i ] 5X8X5X8X4X5X8X4X<X{ >X( $.<.S s m t.M c u.0.h.c.l.i.w.T.h.j.f.w.0.        ",
"        9.x z 0.j.Y.k t.F.C a.k v k M b.B h 7.zX>.O.^ <X/ ] 4X4X4X<X/ { >X( 1.uXdX Xc y.n.v k b d.h.k.D.v 9.E.h.f.x z j         ",
"        z H.aXz w.f.z d.k.Y.Y.i.&.H k M y.F iXfXwX;.K Q u ^ <X/ / Q u ^ 2XK 5.sXsX:.y.y.v m &.J j.E.E.!.f.9.h.9.C.aXk d         ",
"        w.a.*XaXz x z 0.h.T.Q.I.A.4. XH v C 6.uXeX>.*.H >.3.Q u u  .5.%.| S 5.uXeX-.n B =. X=.z.E.W.E.h.9.x d.B.hX/.w.d         ",
"          z a.I.k z d.Y.T.j.W.~.Y.H.F.4.).a.5.uXeX#.S G eXyX XB.6.wXeX-.C 1.eXyX5.=.p. X:.J.c.E.W.W.W.T.h.f.x t.I.9.k           ",
"            w.0.e.f.E.W.W.T.T.W.W.E.R.Z.J.g.H 6.eX=.r.a.6.yX).x.6.uXeX=.r.G.6.eX;.N k.H.z.E.W.W.W.W.W.W.W.T.w.z x f             ",
"              x z.*.F.T.W.W.T.j.k.W.Q.J.T.d.l K G N j.Y.H.J.!.Q.J.I.H.z.T.g.K G m x j.E.E.W.E.Y.T.W.W.W.!.).H                   ",
"                :.uXfXG.T.W.E.h.R.W.W.~.W.Y.w.k z f.E.W.E.E.W.W.W.E.E.E.W.Y.w.k z f.E.W.W.W.W.E.E.W.W.!.XXdX2.. .               ",
"          . . q eXuXrX*.j.W.E.j.E.Y.Y.Y.T.W.Y.e.f.E.W.W.W.W.W.W.W.W.E.T.W.W.Y.e.f.E.W.E.Y.T.W.W.W.W.T.y.5.iX5.. . . . .         ",
"        . . . * 5.1.* h h.h.0.e.E.f.9.9.9.0.0.0.j.W.h.f 0.e.Y.h.e.h.w.e.j T.W.j.9.0.0.0.9.w.T.T.0.d.E.r.e 2.@.. . . . . .       ",
"        . . . . * % . X > : - ; a d w.z d.w.- > e.T.x d f a h.f.d.w.> z f e.T.z - a f.z e.9.> > - ; a : . * % . . . . . .       ",
"          . . . . . . . . . . . . X : > 9.0.9.d.h.9.k f + : j.w.E.e.X : k z e.h.w.9.9.f > ; . . . . . . . . . . . . . .         ",
"                . . . . . . . . . . . X - > 9.0.9.k k z 9.w.z > 0.w.w.x k k z 0.0.k - + . . . . . . . . . .                     ",
"                                . . . . . X - - - - : z 9.z + X - > 0.x f - - - - + . . . . . . .                               "
};
