/* XPM */
static char *fd3fec9bee9f4ee5857f6426307fedd9XpT2ogvMx5SuC4Ng[] = {
/* columns rows colors chars-per-pixel */
"64 50 210 2 ",
"   c #060200",
".  c #0A0502",
"X  c #0D0B07",
"o  c #0F0C08",
"O  c #120E0A",
"+  c #16110D",
"@  c #1D150E",
"#  c #1F180E",
"$  c #171410",
"%  c #1C1611",
"&  c #1E1914",
"*  c #1F1C18",
"=  c #20170E",
"-  c #21180E",
";  c #211711",
":  c #231B12",
">  c #2A1C15",
",  c #221E1A",
"<  c #2D1E19",
"1  c #301F1B",
"2  c #2C2116",
"3  c #25211D",
"4  c #2B231B",
"5  c #2D261F",
"6  c #2F281D",
"7  c #302317",
"8  c #33241C",
"9  c #342A1D",
"0  c #392D1E",
"q  c #282320",
"w  c #2A2621",
"e  c #2E2622",
"r  c #2D2924",
"t  c #2F2B28",
"y  c #362621",
"u  c #382722",
"i  c #302921",
"p  c #332C24",
"a  c #392C23",
"s  c #322E29",
"d  c #3B2E28",
"f  c #3C3224",
"g  c #33322E",
"h  c #35312C",
"j  c #3B332C",
"k  c #3F382F",
"l  c #3C3631",
"z  c #3D3933",
"x  c #3B3934",
"c  c #413426",
"v  c #433826",
"b  c #42352B",
"n  c #453A2A",
"m  c #493E2C",
"M  c #413731",
"N  c #433C34",
"B  c #4B3D34",
"V  c #423E39",
"C  c #4C3E39",
"Z  c #4C412E",
"A  c #4C4232",
"S  c #45423C",
"D  c #4B443D",
"F  c #514634",
"G  c #544936",
"H  c #584B37",
"J  c #52463C",
"K  c #554B3B",
"L  c #594D3B",
"P  c #5C513D",
"I  c #60543F",
"U  c #474640",
"Y  c #494741",
"T  c #4C4A44",
"R  c #4F4E49",
"E  c #544D44",
"W  c #5B4D42",
"Q  c #514F48",
"!  c #5C5343",
"~  c #55524C",
"^  c #5B554B",
"/  c #5D584E",
"(  c #565650",
")  c #595751",
"_  c #5C5A53",
"`  c #5E5E58",
"'  c #615542",
"]  c #695444",
"[  c #645945",
"{  c #6A5A46",
"}  c #60574C",
"|  c #645B4B",
" . c #6B5D4C",
".. c #715C4A",
"X. c #635D54",
"o. c #6B5E52",
"O. c #635F58",
"+. c #6D614F",
"@. c #76614D",
"#. c #666056",
"$. c #6B6253",
"%. c #65635B",
"&. c #6A655B",
"*. c #6E695C",
"=. c #716655",
"-. c #736856",
";. c #736B5B",
":. c #7A6E5C",
">. c #7A705F",
",. c #676761",
"<. c #696761",
"1. c #6C6A63",
"2. c #6E6E68",
"3. c #726D64",
"4. c #786F60",
"5. c #726F69",
"6. c #757067",
"7. c #7C7363",
"8. c #75726B",
"9. c #7A756B",
"0. c #7E796D",
"q. c #787771",
"w. c #7C7A74",
"e. c #7F7E79",
"r. c #846952",
"t. c #85735D",
"y. c #90735B",
"u. c #857864",
"i. c #837B6D",
"p. c #8A7E6D",
"a. c #987D64",
"s. c #827D74",
"d. c #887F70",
"f. c #807F79",
"g. c #8E806D",
"h. c #948067",
"j. c #94826B",
"k. c #868075",
"l. c #8D8474",
"z. c #84827B",
"x. c #8A857B",
"c. c #8E887B",
"v. c #928572",
"b. c #948877",
"n. c #9A8973",
"m. c #938B7B",
"M. c #9A8E7B",
"N. c #9D917D",
"B. c #A28D77",
"V. c #A2937D",
"C. c #878680",
"Z. c #888780",
"A. c #8C8B84",
"S. c #8F8E88",
"D. c #938E82",
"F. c #908F89",
"G. c #959086",
"H. c #9B9383",
"J. c #94938C",
"K. c #9B968B",
"L. c #9F9A8E",
"P. c #979691",
"I. c #989791",
"U. c #9C9B94",
"Y. c #9F9F99",
"T. c #A09685",
"R. c #A79B87",
"E. c #A99B87",
"W. c #A49B8B",
"Q. c #AA9E8B",
"!. c #A29E93",
"~. c #A19F98",
"^. c #ADA18D",
"/. c #B0A28C",
"(. c #A6A095",
"). c #ACA393",
"_. c #A5A39C",
"`. c #ABA69B",
"'. c #ADA99E",
"]. c #B3A793",
"[. c #B4A996",
"{. c #B4AC9C",
"}. c #B9AD99",
"|. c #BCB19E",
" X c #A8A7A1",
".X c #ACABA3",
"XX c #AFAFA8",
"oX c #B2AEA2",
"OX c #B0AFA8",
"+X c #B4B0A6",
"@X c #BBB3A2",
"#X c #B3B2AB",
"$X c #BAB6AC",
"%X c #BCB8AC",
"&X c #B7B7B1",
"*X c #BCBCB4",
"=X c #BFBFB8",
"-X c #C1B6A2",
";X c #C2B8A5",
":X c #C4BBAB",
">X c #C3BFB4",
",X c #C6C1B4",
"<X c #CBC4B4",
"1X c #C2C2BA",
"2X c #C8C6BC",
"3X c #CDC9BD",
"4X c #D2CAB8",
"5X c #CCCCC4",
"6X c #D1CDC1",
"7X c #E0DED4",
/* pixels */
"s r e e e e w 5 5 5 5 5 e e e i e e q q w e e e e 5 5 e e e e i i i p i e e e e 5 e e e e w q q q q 3 3 3 , , , , , * * & * * V ",
"3 & ; ; ; ; % # # # # # = ; ; ; ; % % % % % % % % # = ; ; ; % ; ; ; ; & # # % # # % % % % @ % % % $ + + + + + O O O o X X X O h ",
"3 : : : ; ; ; - - # # # % ; ; ; ; ; : & % @ % % # # # % % % % # # ; # # # # # % # % % % % % % $ $ + + + + O O O O O X X X X O h ",
"w , : : ; ; ; - # # # - = ; = = ; ; ; : & # @ % # # # # # % % # - ; # # % % % % % % % % % % % % $ + + + O + + + O O X X X X X g ",
"h 5 > : ; : : ; - # - - - ; - - ; ; ; ; # # @ % # # # # # % ; # ; ; ; ; ; ; ; ; ; ; % % % % % % + + + + O + + + O o X X X X X g ",
"Y h p 4 > : : : : : - ; ; ; ; ; ; ; ; # # # & % # # # # # % = = ; ; ; ; ; ; ; ; ; % % % % % % % + + + + + + + O O o X o X X X g ",
"( S V j 9 2 : : : : : : : : : ; ; ; ; ; ; ; ; ; % # # # % ; = = ; ; ; ; ; ; ; ; ; ; % % % % % $ + + + + + O O O O o o X X X X g ",
"( Y U V j i 2 2 2 : : : : : : ; ; ; ; ; : ; ; ; ; ; # # ; ; = = % ; ; ; ; ; ; ; ; ; ; % % # + $ + + + + O O O O O O O X X X X g ",
"_ R S ~ ) D p 5 f 4 : > : : : : : : : ; : : : : : ; ; # # # # = = - ; ; ; ; ; ; ; = # # ; ; % @ + + + + O O O O O O O O o X X g ",
"_ ~ U R 5.%.Y l A a 2 2 2 > > 2 > > > : 2 2 : > : : : ; = # = - - - - = = - ; ; % # ; f W / z & % + + + + + + + + O O O o X X g ",
"%._ R S ~ %.` ^ K f 2 9 c 7 2 2 2 2 4 f *.*.n > > > : : - - = = = = = = = - = % # > D &.9.3.W 5 % # % % % + + + + + O O X X X g ",
"` _ ( Y D %.%.%.! A 9 0 m 8 7 a 7 > 2 K D.H.7.n > > : : : : ; - - = = - - - = = > D 3.0.k.3.~ p ; # # % @ + + + + + O o X X X x ",
",.%.) T T %.1.1.%.&.T n F 9 9 m 9 8 9 ^ H.K.m.4.f 2 > : : : > : - : : : : > > 4 E 6.s.A.S.8.~ i ; = # % % % % + + + O O O O % U ",
"_ %.` ~ Q 1.2.1.<.q.6._ L a 9 A 9 a m &.U.(.L.m.$.a 2 : > > > > > > > > > > 4 D 5.s.S.J.S.q.^ 6 ; - = % % # @ @ + + O O + % 3 R ",
"r s z Y _ 2.8.2.1.8.e.8.[ B f F f c A $.K.!.K.m.k.} 9 > > > > > > 2 2 > > > N 3.9.x.J.J.z.8.^ 4 : ; - ; ; # # @ + + + + & , , Q ",
"w , & 3 s z T ) %.f.z.z.;.&.E L c c A ! D.!.G.k.3.#.C j j j j N N n f n j j ~ %.6.k.Z.S.Z.e.^ 4 > > : : : ; - - > ; & e 3 3 & E ",
"l s e 3 & , 3 3 h T ) 1.w.z.9. .m c F K D.(.G.x.3.%.<.1.9.8.6.8.1.1.8.2.6.%.%.%.3.w.x.S.S.k.W 7 8 2 2 9 : 0 a : m f > k 3 3 % D ",
"j z j e : e h s q 3 r s D 6.3.$.^ B A n 9.!.G.w.x.U.w.6._.Y.q.e.2.8.8.Z._.e.2.z.w.9.A.J.A.9.F 9 a 0 8 c 2 f v 2 F f : j 3 3 & V ",
"s N j p % 3 l l s j V l j ~ C s j f f a %.A.x.A.+X*Xs.6..X_.J.J.f.z.z.J._.z.%._.oXk.w.x.s.X.n 9 a 0 9 f 2 c f 8 F a ; s w , O s ",
"p V z h @ % j M M D D C M N B j j a 4 5 X.c.7.^ %.s.H.).oX~._._.I.U.P.S.~.U.J.J.w.1.6.s.5.^ f 9 0 0 9 f 9 n f u A 9 & 3 & O . s ",
"w V l j : + j M J =.W C C E C N C N b N ;.u.A 9 3 h J M.,X.X_._.U.U.U.U.*X X%.l 3 , z 9.3.V j f a a a a p s e 5 i ; O O X X X h ",
"3 N l j , + j B L y.{ C T X.D D W B A $.W.H.| C q r p ^ @X%X`.J.Z.S._.XX=Xq.V h w w T k.S.Q e 3 , , & % % % + + % O X $ % O % V ",
"& j j M p : j B J y...C J o.J J X.D K 7.{.:XD.%.j j / K H.@X`.!.D.G.(.#X_.%.O.e , z 6.#X$X5.g , , * & * % r & , N % O 3 w % l T ",
"% s l M l h M C B r.@.J W { J J O.E [ :.m.W.`.'.`.`.W.$.u.T.^.[.}.[.Q.K.2.~ x.k.9.x._.#XF.1.S 3 w 3 , 3 & g , e E % , r p 3 l U ",
"% s M N N z N C B @.@.J K { K J W ^ 7.l.l.m.c.D.(.@XH.9.p.b.Q.].}.[.Q.x.1.&.D.@X'._.J.z.8.2.T w r 3 3 3 & h , s ^ : p N s r s ^ ",
"j j j M N N l B B L ! J J W W K J $.M.g.7.:.u.c.m.H.m.M.v.t.u.n.B.B.g.7.k.A.k.J.S.z.q.8.w.C.1.g r r 3 , & s , j ~ 3 s j 5 , : U ",
"j u p d d u d j b c B B B B C C W :.u.:.+. .p.M.m.T.].|.v.P ] y.a.y.{ { M.@X'.U.J.C.2.1.2.8.w.S 3 , & % % , w p e O O X . . . s ",
"y 4 9 u 8 8 8 y y a c c c c b b B 7.N.R.N.u.p.l.l.N.].<X,XD.W ] r.] } K.,X,X(.S.z.Z.8.w.Z.q._ t % + + + : , 3 & + .           t ",
"8 > < 4 < > < 1 < 8 8 8 8 8 8 a f :.W.R.E.V.n.Q.).^.@X4X7X7X`.E n o.$X7X7X3X.XU.J.S.J.U.U.C.1.r + + + + & % + + O . X % : X   t ",
"< : > < > : > > > < 1 8 8 y a d N *.'.@X|.[.Q.^.].}.;X<X6X6X1X8.~ K.5X5X5X2X$X_._.U.U.J.J.P.1.5 % % % + + O O + @ 4 m F A 4 . s ",
"> ; > > ; : > > > < 1 y d b b D ^ 3.L.@X<X<X;X[.^.E.).@X%X$X.Xz.8.I.#X*X*X#X.X_..X&X#X#X&X_.&.V j i 4 > > 4 4 9 f A P L F i . s ",
"> : > > ; : > > > < y u d M D W / 9.K.(.{.@X@X/.n.h.j.M.W.K.U.U.J.I.I.U.J.Z.J. X*X2X1X*X$XJ.1.1.1.X.^ E ^ ^ ! L A m n Z A ; . s ",
"< > < > > < 4 4 u d M D E ^ O.3.w.~.'.K.W.R.E.V.n.h.a.j.M.H._..X.X.X_.J.J.U..X#X#XOX.X`.U.Z.3.%.%./ O.^ ~ ! L G m v n m c ; X s ",
"p i d p d j N C W X.O.%.3.5.9.9.k..XoXW.).}.}.].E.V.V.n.v.l.c.c.k.S.S.U._.#X$X$X+X.X.X'.J.6.1.3.&._ T C n F G Z v m J K A f 5 z ",
"l l N N D W W ) &.3.3.6.9.6.3.5.k.(.{.H.m.W.|.-X-X|.|.}.].).W.!.J.U._.*X=X=X*X*X#X+X.XU.k.&.%.X.X.&.^ n n ' L n 0 A L L ! K A ^ ",
"S D U D E ~ ~ O.1.1.3.1.*.&.&.6.k.G.(.W.m.H.).@X;X:X:X<X<X,X+X3X*X.X*X2X1X*X1X*X$XoX!.s.*.3.9.^ D ! ^ J m ! P m 0 A J F P P F $.",
"S U Y T ~ ^ _ O.O.O.O.O.%.&.6.A.K.x.H.`.{.).H.R.[.@X:X,X<XoX(.3X2X'.,X2X>X$X$X$X'.H.i.;.3.i.9.^ A F A F K P L A f n F A F A Z | ",
"S U D U T E ~ ~ _ O.&.3.w.A.U.`.!.x.9.m.`.{.Q.N.v.m.T.}.].M.).:X%X).@X@X{.).H.m.i.;.-.7.m.m.3.K n n n F K L F A m n A F Z n f ! ",
"V z V S T E ^ _ %.5.f.z.J..X*X.Xs.i.$.| :.d.N.n.u.:.u.v.m.M.Q.[.).H.T.H.l.7.;.+.-.u.m.H.H.d.X.K c c n m m n n A F K K K F A n ! ",
"z V T ~ %.6.8.5.e.F.U.e.e.!.(.x.[ +.=.' m A { +.-.t.u.p.l.M.H.H.H.l.M.M.d.7.7.p.m.H.W.H.i.X.^ X.N 0 f f f v m F K L L L L F A { ",
"z S D O.Z.J.J.z.z.A.U.z.8.i.7.| Z F [ { L F n c F ' '  .;.9.i.0.k.9.s.c.m.c.c.c.m.c.D.i.&.~ / X.N 9 a f n Z F G L P P P L L G $.",
"3 3 l _ e.Z.z.1.q.z.D.A.s.7.;.! A A F L { { L m n n m K ! &.3.w.s.3.O.&.6.3.3.*.*.X.%._ %.1.%.V 4 9 f n m Z G G L P P P P P L =.",
", x <.,.~ ) %.) %.6.i.x.0.:.=.[ A n c m F I [ [ ' ' { ' ^ &.6.z.Z.8._ S S S S D E ~ O.1.8.&.Q w & 5 f v n F H G H P P G F F F $.",
", z w.z.1.Q S C A E X.*.*.;.+.^ A f f f n m A L '  .+.=.7.9.s.A.F.C.q.O.~ ) Q E %.2.6.q.1.~ z 3 & 5 s s n A G L L P P L G G F $.",
", 3 U 8.2.( D j k D T W ^ } [ E A f 0 9 0 0 0 n G L ! $.9.w.e.C.z.Z.w.2.6.w.8.1.%.1.1.%.~ l r , , e s j n m G P P [ [ ' P L G $.",
"4 : 3 h s l S s h z S D T E E D N f 9 4 > : : 2 f n F ^ %.%.2.8.1.q.8.1.%.1.1.%._ _ ~ T z w 3 & , p j n N A F L P ' [ [ ' P L =.",
"u > = @ @ , h s s h l z S U Y S l 5 4 4 3 4 4 4 9 9 f D ~ ) _ %._ _ %.%.` ) ~ T U z h t r * & , 3 s j N N A A G P ' [ [ [ ' ' :.",
"8 > ; ; = # : 3 e t s l V S Y S j , & , , 4 5 9 9 > 3 x T ~ ) ~ R T ~ ( ~ V w 3 w r 3 , * & % & , p j z N A A F L ' [ [ ' ' ' >.",
"< > > > > ; = @ % : 3 s l V S V s & + + & > 4 4 ; % , l S ~ ) U T ) R U ~ U 3 $ 3 q 3 & & & $ + % w g h l N B A L P ! ' ! L L ;.",
"> ; ; > ; ; = = @ + + , p z l h 3 + O O : 4 4 & O O & h S T T Y ~ %.~ S U _ x & , q 3 & + + + + $ , r g h z N A K K L ' ! K Z | "
};
