/* XPM */
static char *result[] = {
/* columns rows colors chars-per-pixel */
"65 46 88 1 ",
"  c black",
". c #0B0B0B",
"X c #170F07",
"o c #1F170B",
"O c #131313",
"+ c #1B1B1B",
"@ c #2B230F",
"# c #332B13",
"$ c #3F2F17",
"% c #232323",
"& c #272727",
"* c #2F2F2F",
"= c #373737",
"- c gray23",
"; c #4B371B",
": c #533F1F",
"> c #5F4323",
", c #6B4727",
"< c #774F2B",
"1 c #7F532F",
"2 c #434343",
"3 c gray28",
"4 c gray31",
"5 c #9B0000",
"6 c #A70000",
"7 c #B30000",
"8 c #BF0000",
"9 c #8B2323",
"0 c #972F2F",
"q c #9B3333",
"w c #A33B3B",
"e c #A73F3F",
"r c #CB0000",
"t c #D70000",
"y c #E30000",
"u c #EF0000",
"i c red",
"p c #FF1F1F",
"a c #FF3F3F",
"s c #9B5B13",
"d c #B74700",
"f c #AF7B1F",
"g c #875733",
"h c #8F5F37",
"j c #CB5707",
"k c #D75F0B",
"l c #AF4747",
"z c #B34F4F",
"x c #BB5757",
"c c #BF5B5B",
"v c #B37347",
"b c #BF7B4B",
"n c #FF5F5F",
"m c #CB7F4F",
"M c #C76363",
"N c #CB6B6B",
"B c #FF7B7B",
"V c #C39B2F",
"C c yellow",
"Z c #FFFF23",
"A c #D78B5B",
"S c #D7BB43",
"D c #FFA35B",
"F c #EFA373",
"G c #F7AB7B",
"H c #EBDB57",
"J c #FFFF73",
"K c black",
"L c #E78F8F",
"P c #FF9B9B",
"I c #FFB383",
"U c #FFBB93",
"Y c #FFBF9B",
"T c #F3A3A3",
"R c #F7ABAB",
"E c #FFB7B7",
"W c #FFBBBB",
"Q c #FFC7A7",
"! c #FFCFB3",
"~ c #FFD3BB",
"^ c #FFD7BB",
"/ c #FFDBC7",
"( c #FFE3D3",
") c #FFEBDB",
"_ c #FFEBDF",
"` c #FFFFD7",
"' c #EFEFEF",
"] c white",
/* pixels */
"KKKKKKKKKKKKKKKKKKKKKKKKKKMcKKKKKKKKKcMKKKKKKKKKKKKKKKKKKKKKKKKKK",
"KKKKKKKKKKKKKKKKKKKKKKKKKKczKKKKKKKKKzcKKKKKKKKKKKKKKKKKKKKKKKKKK",
"KKKKKKKKKKKKKKKKKKKKKKKKKKxzKKKKKKKKKzxKKKKKKKKKKKKKKKKKKKKKKKKKK",
"KKKKKKKKKKKKKKKKKKKKKKKKKKvvKKKKKKKKKvvKKKKKKKKKKKKKKKKKKKKKKKKKK",
"KKKKKKKKKKKKKKKKKKKKKKKKKxvvxcKKKKKcxvvxKKKKKKKKKKKKKKKKKKKKKKKKK",
"KKKKKKKKKKKKKKKKKKKKKKKKKxbbxlKKKKKlxbbxKKKKKKKKKKKKKKKKKKKKKKKKK",
"KKKKKKKKKKKKKKKKKKKKKMztaNFANatKKKtaNAFNatzMKKKKKKKKKKKKKKKKKKKKK",
"KKKKKKKKKKKKKKKKKKKcxw0pamIDmapuxupamDImap0wxcKKKKKKKKKKKKKKKKKKK",
"KKKKKKKKKKKKKKKKKKKl08upanUDnapu8upanDUnapu80lKKKKKKKKKKKKKKKKKKK",
"KKKKKKKKKKKKKKKKKKKwtpuanBYFBnaupuanBFYBnau75wKKKKKKKKKKKKKKKKKKK",
"KKKKKKKKKKKKKKKKcx0utpaanG!QGnaapaanGQ!Gnaap750xcKKKKKKKKKKKKKKKK",
"KKKKKKKKKKKKKKMxq0rtuupnBI^/IBnpupnBI/^IBnpuu750qxMKKKKKKKKKKKKKK",
"KKKKKKKKKKKKKKcwttttuupBPQ``QPBpupBPQ``QPBpuut775wcKKKKKKKKKKKKKK",
"KKKKKKKKKKKKKKxwttuuiapBPQ``QPBpapBPQ``QPBpaiuut75xKKKKKKKKKKKKKK",
"KKKKKKKKKKKKKMzyutupuuaBP~``~PBauaBP~``~PBauuput77zMKKKKKKKKKKKKK",
"KKKKKKKKKKKKKKxyttupppaBR(``(RBapaBR(``(RBapppu77yxKKKKKKKKKKKKKK",
"KKKKKKKKKKKKKKKztpuaaanPW(]](WPnanPW(]](WPnaaau7tzKKKKKKKKKKKKKKK",
"KKKKKKKKKKKcxlqyinpannBR/_]]_/RBnBR/_]]_/RBnnapt77qlxcKKKKKKKKKKK",
"KKKKKKKKKKMl0lrtunpnBTRW(_]]_(WRTRW(_]]_(WRTBnpattrl0lMKKKKKKKKKK",
"KKKKKKKKKKKx8lttpipBBRW(__]]__(WRW(__]]__(WRBBpitytl8xKKKKKKKKKKK",
"KKKKKKKKKMcllyytanaBR/(_)]]]])_(/(_)]]]])_(/RBanatyyllcMKKKKKKKKK",
"KKKKKKKKKcetuappianBE(_``]]]]``_(_``]]]]``_(EBnaippautecKKKKKKKKK",
"KKKKMccxcl8tupppannPW_]]]]``]]]]_]]]]``]]]]_WPnnappput8lcxccMKKKK",
"KKKKxllll0tuuuupaBBW/_]`]]``]]`]- `]]``]]`]_/WBBapuuuut0llllxKKKK",
"KKKKK00098upuaunnLW_'``]CZJJJZC`+ ]CZJJJZC``'_WLnnuaupu89000KKKKK",
"KKKe668ruuuuauaBBR/_``VSHCZZZCHH+ HHCZZZCHSV`_/RBBauauuuur866eKKK",
"KKKK08tyypuppauanW(`]sfVSHCCCHSS  SSHCCCHSVfs`(Wnauappupyyt80KKKK",
"KKxcd7jyuappapanBW_`><sfVSHHHSVV  VVSHHHSVfs1<_WBnapappauyj7dcxKK",
"KcxktypppppppaBPR/)`><gsfVSSSVff  ffVSSSVfsg<>)/RPBapppppppytkxcK",
"McjtuupppaanBBPQ/``2@><1ghfffh<<  s<hfffhg1<>%2`/QPBBnaapppuutjcM",
"MccktuappanBBPQ/```-#$>>,,,,,>>,  <>>,,,,,,>;%-``/QPBBnappautkccM",
"MMcxkppppaanBPQ/(`2@@@$::::::::>  ,::::::::;-&O2(/QPBnaappppkxcMM",
"KKKcckppppaaanBPQ/2#o.@#$$$#;==:  ,:;$$$$$=--*+2QPBnaaappppkccKKK",
"KKKcllppppapppnnL2@@.. .O+%&===;..>;oX +&&*=-2%O2nnpppappppllcKKK",
"KKKce7uuaupnpupBP2#o.  .O+&&===$..>$oo  +%*=-2*+2Bpupnpuauu7ecKKK",
"KKzxw8ppiuuuppnB=@@..  .O+&&===#..:@oo  +%**=-=%O=nppuuuipp8wxzKK",
"KMcllKtuapiippan2@o.. .OO+&*===%..;@oo  +%&*==2%+2appiipautKllcMK",
"KccKKKtyuuppppa=@@... .O++&**=*+..$@ooX +%&**=2=%O=ppppuuytKKKccK",
"KMccl8rtupupppa@#o..  .O++&**=*+..@@ooX  +&**=-4%O=pppuputr8lccMK",
"KKcce98tyuuuau=@@.O.  .O++&**=*+..@@ooX  +&***-3%+O=auuuyt89eccKK",
"KKKKl08tyyupug2#o.O. ..O++&****+..@@ooX  +%&**-3=%%2upuyyt80lKKKK",
"KKKKcxK0KrgKK2@@.OO. ..+++&****+..@@ooX. ++&**-34%O%2yurK0KxcKKKK",
"KKKKKKKKKKKKK2#o.O.  ..+++&****+..@@ooo.  +&**=34%+ 2t88KeKKKKKKK",
"KKKKKKKKKKKK=@@.O+.  ..+++&****+..@@ooo.  ++**=-3=% %=KKKKKKKKKKK",
"KKKKKKKKKKKK2#o.OO. ...+++&****+..@@ooo.  ++&**-34%O 2KKKKKKKKKKK",
"KKKKKKKKKKK=@@.O+O. ...+++&****O..@@ooo.  ++&**=243+ %=KKKKKKKKKK"
};
