/* XPM */
static char *result[] = {
/* columns rows colors chars-per-pixel */
"59 55 54 1 ",
"  c #070707",
". c #070707",
"X c #0B0B0B",
"o c #170F07",
"O c #171F07",
"+ c #1F170B",
"@ c #131313",
"# c #1B1B1B",
"$ c #2F1B0B",
"% c #2B230F",
"& c #372313",
"* c #332B13",
"= c #3F2F17",
"- c #232323",
"; c #272727",
": c #2F2F2F",
"> c #373737",
", c gray23",
"< c #432F1B",
"1 c #43331B",
"2 c #533F1F",
"3 c #4F3B23",
"4 c #5F4323",
"5 c #574333",
"6 c #5F4B37",
"7 c #774F2B",
"8 c #7F532F",
"9 c #67533F",
"0 c #434343",
"q c gray28",
"w c gray31",
"e c gray34",
"r c #5B5B5B",
"t c #775F4B",
"y c gray39",
"u c gray42",
"i c #6F6F6F",
"p c #777777",
"a c gray50",
"s c #875733",
"d c #8F5F37",
"f c #9B633B",
"g c #836B57",
"h c #8B735B",
"j c black",
"k c #838383",
"l c #8B8B8B",
"z c #939393",
"x c #979797",
"c c #A7A7A7",
"v c gray67",
"b c gray70",
"n c gray78",
"m c LightGray",
/* pixels */
"jjjjjjjjjjjjjjjjjjjjjjjjjjjjj,yjjjjjjjjjjjjjjjjjjjjjjjjjjjj",
"jjjjjjjjjjjjjjjjjjjjjeqqqqqqj#,j::>>qwejjjjjjjjjjjjjjjjjjjj",
"jjjjjjjjjjjjjjjjjjj0# @#->,,:#>@o@#>0rrq0jjjjjjjjjjjjjjjjjj",
"jjjjjjjjjjjjjjjjjj0%  @#->>>:  *o@#-,qyq,0jjjjjjjjjjjjjjjjj",
"jjjjjjjjjjjjjjjjj0%X  @#->>>:  *o@ ->0er,-0jjjjjjjjjjjjjjjj",
"jjjjjjjjjjjjjjjjj0%X X@#->>>:  *%@ #:>qy0-,jjjjjjjjjjjjjjjj",
"jjjjjjjjjjjjjjjj0%+X X@#;>>>:  %%@ #;:0ew:-0jjjjjjjjjjjjjjj",
"jjjjjjjjjjjjjjjj,*X  X@#;>>>;  %%@  #:>qq>-,jjjjjjjjjjjjjjj",
"jjjjjjjjjjjjjjj0%%X  @@-;>>>;  %%+o #;>00,;@0jjjjjjjjjjjjjj",
"jjjjjjjjjjjjjjj0*+X X@@-;>>>;  %%+o #;:>,,:#0jjjjjjjjjjjjjj",
"jjjjjjjjjjjjjj0%%XX X@#-;>>>;XX%%+o #;;:>,0-@0jjjjjjjjjjjjj",
"jjjjjjjjjjjjjj0*+X  X@#;;>>>-XX%%++  #-:>,0:#0jjjjjjjjjjjjj",
"jjjjjjjjjjjjj>%%XX  X@#;;>>>-XX%%++  #-::>,>-@>jjjjjjjjjjjj",
"jjjjjjjjjjjjj0%+XX X@@#;:>>>-XX%%++  #-;:>>0-#0jjjjjjjjjjjj",
"jjjjjjjjjjjj>%%XXX X@##;::>:#XX%%++o #-;::>0>-@>jjjjjjjjjjj",
"jjjjjjjjjjjj%*+XX  X@##;::>:#XX%%++o  #;::>,w-@>jjjjjjjjjjj",
"jjjjjjjjjjj>%%X@X  X@##;::>:#XX%%++o  #;:::,q-#@>jjjjjjjjjj",
"jjjjjjjjjjj0*+X@X XX@##;::::#XX%%++o  #-;::,q>--0jjjjjjjjjj",
"jjjjjjjjjj0%%X@@X XX###;::::#XX%%++oX ##;::,qw-@-0jjjjjjjjj",
"jjjjjjjjjj0*+X@X  XX###;::::#XX%%+++X  #;::>qw-# 0jjjjjjjjj",
"jjjjjjjjj>%%X@#X  XX###;::::#XX%%+++X  ##::>,q>- ->jjjjjjjj",
"jjjjjjjj80*+X@@X XXX###;::::#XX%%+++X  ##;::,qw-@ 0jjjjjjjj",
"jjjjjjjj>%%X@#@X XXX###;::::@XX%%+++X  ##;::>0wq# ->jjjjjjj",
"jjjjjjjj>*+X@#X  XXX###;::::@XX%%++%X  ##;::>,wy-  >jjjjjjj",
"jjjjjjj>%%X@##X  XXX###;::::@XX%%++*X  @##;::>wiq@ #>jjjjjj",
"jjjjjjj3*+X@##X XXXX###;::::@XX%%++>X  @##;::>0iy;  qjjjjjj",
"jjjjjj1*%+@###  XXXX###;:::: XX%%++0X  @##;::,0uaq; #:jjjjj",
"jjjjjj*%+ X@@@  X@X--;#;:::: XX%*++rX  @##;::,0uzr:- :jjjjj",
"jjjjj1 .X#--::>>>;;####;:::: XX%*%+0X       ;:0ww0># #:jjjj",
"jjjjjX .%-:,0qwwqwq>:## #-:: XX%**+%X  @;:,qqryiiyw>>@:jjjj",
"jjjjXXO;;:>,0qw00qqqeeq: ##- XX*=*++XX;::-:,0wrypbmxw,@:jjj",
"jjjjXO--;:>,0q00,,,,qweeq:;  XX**@@ #;-##-:,,0wwrilbmi@:jjj",
"jjj@@$--;:>,00,>>>>>0q0>>-##       ######-:::,00qqrukxr,:jj",
"jjj $$;-;:>>>>>>>>>>>::;#--;#::qrpy:::;@###;&<:,000wriae,jj",
"jj  X$&-;::;;;-::::::;##-----;::0q>>,,,:;@##++;;:,00wryie;j",
"jj  X@$;;;;:::;--;;;###----#######:::,0,>;@@  @::;:>0wwywqj",
"j +  X@$;->qycy>;@@##------#:;;;>i;:>>000>:# #:,rr,:>0wewqj",
"jo+  X@$;>>>qry0:;@##------#######;:>>000>:# #:qrpw>>00wqqw",
"jo+   @$&>>:,,,:;@#;-------#::-->i:::>,0q0>:@#;qpnp0:>00qq>",
"jo%o  @$&>:::;##@#-;-----##@@@@@@@#::>,0q0>:@#;qrphw:>>>>>;",
"jo%+  X@-:::-;-@#-;;;;;;;;;;;;;;;;;;>,00qq0>;@#,6ghw=>=%;;#",
"jo*+o X@@-#---@#;-;;-;;--@@XXXX@@@@@@;;:>>,,,-@;,9tw%%%###@",
"jo*%ooX@@-#--@#-;-;;-##@@@@XXXX@@@@@@@@@;>,,,>;@;,50%XX@@@X",
"j **%+o X#@@@#;;;;###@       .X@@@@@@@@@@@;>q0>;@-;:XXXXXXX",
"jj+=*%++ @###;;;#@           .X@@@@@@@@@@@@;;,q,>;--@XXXXXj",
"jj =**%+ @##;;;#             .X@@@@@@@@@@@@@@;:,000>@XXXXXj",
"jjj+=*%+ ##-;;@              .X@@@@@@@@@@@@@@@-;,qrr0XXXXjj",
"jjj ==+ ###;;                .X@#@@@@@@@@@@@@@@-;,ria0XXXjj",
"jj47+++####;@                .X@#@@@@@#@@@@@@@@@-;qiauXXjjj",
"jj442++##;;@               ...X@@@@@@@###@#@@@@@@-;wii;jjjj",
"jj44s###;@@                ...X@@@@@@@@@#@@@@@@@@@->ei0jjjj",
"j47f####;@                 ...X@@@@@@@@@#@@#@##@@@@-eiqjjjj",
"47fd###;@                  ...X@@@@@@@@@@@@@@@##@@@->er:jjj",
"4sd7###@                   .X.X@@##@@#@@@#@#@@#@@@@@@0r0jjj",
"4s7-##@                    .X.;pv@@@@##@@@@@@@#@#@#@@-r0jjj"
};
