/* XPM */
static char *result[] = {
/* columns rows colors chars-per-pixel */
"55 37 211 2 ",
"   c #020202",
".  c #080502",
"X  c #0C0C0B",
"o  c #150E06",
"O  c #17120B",
"+  c #1E160B",
"@  c #1F1A0E",
"#  c #141414",
"$  c #1C1C1C",
"%  c #241D0D",
"&  c #251F15",
"*  c #2A230F",
"=  c #2D2511",
"-  c #352B15",
";  c #242424",
":  c #2C2C2C",
">  c #352E2C",
",  c #39352C",
"<  c #3A362E",
"1  c #353535",
"2  c #3B3131",
"3  c #3B3B3B",
"4  c #47361A",
"5  c #513C1E",
"6  c #473B27",
"7  c #553F26",
"8  c #443838",
"9  c #41413F",
"0  c #6A4827",
"q  c #734D2B",
"w  c #79522E",
"e  c #664D37",
"r  c #374546",
"t  c #374149",
"y  c #3D474F",
"u  c #3E4C50",
"i  c #434343",
"p  c #4F4040",
"a  c #4B4B4B",
"s  c #414B54",
"d  c #475159",
"f  c #515451",
"g  c #5D5D5D",
"h  c #605D5D",
"j  c #4F5961",
"k  c #545E66",
"l  c #58666E",
"z  c #6A6B70",
"x  c #981A1A",
"c  c #BA0403",
"v  c #AA1515",
"b  c #AC1D1D",
"n  c #B71414",
"m  c #B31A1A",
"M  c #992A2A",
"N  c #9C3434",
"B  c #A82424",
"V  c #B62C2C",
"C  c #BB2C2C",
"Z  c #A43B3B",
"A  c #AC3B3B",
"S  c #B53737",
"D  c #C30101",
"F  c #CC0202",
"G  c #C90E0D",
"H  c #D30101",
"J  c #DC0101",
"K  c #D90A0A",
"L  c #CC1616",
"P  c #E40100",
"I  c #EB0101",
"U  c #E90C0B",
"Y  c #F60505",
"T  c #F50C0C",
"R  c #F1120E",
"E  c #E91515",
"W  c #F51515",
"Q  c #FB1414",
"!  c #F51917",
"~  c #FF1F1F",
"^  c #CE3404",
"/  c #D83A0A",
"(  c #FE231F",
")  c #FB3B1C",
"_  c #C52B2B",
"`  c #C93636",
"'  c #EC2A2A",
"]  c #FD2222",
"[  c #F42929",
"{  c #FE2B2B",
"}  c #FF302B",
"|  c #FF3535",
" . c #FF3D3D",
".. c #BB4B1B",
"X. c #8B5C33",
"o. c #9B6A25",
"O. c #A3722A",
"+. c #B7723A",
"@. c #D6510C",
"#. c #EE4516",
"$. c #FA541C",
"%. c #DC6310",
"&. c #E66512",
"*. c #F17017",
"=. c #C95A3B",
"-. c #FD4A2D",
";. c #FB5030",
":. c #C16933",
">. c #FF6D3B",
",. c #845959",
"<. c #9E5656",
"1. c #A94545",
"2. c #AB4949",
"3. c #B34343",
"4. c #B24B4B",
"5. c #A95656",
"6. c #BA5454",
"7. c #B55856",
"8. c #BE5B5A",
"9. c #B46D56",
"0. c #B36565",
"q. c #B26E6E",
"w. c #D54442",
"e. c #C75D40",
"r. c #C25858",
"t. c #FF4242",
"y. c #FF4A4A",
"u. c #FF5555",
"i. c #FF5C5C",
"p. c #C56658",
"a. c #C56161",
"s. c #C3686A",
"d. c #FF6565",
"f. c #F76E6E",
"g. c #FF6B6B",
"h. c #F77575",
"j. c #FF7575",
"k. c #FF7C7C",
"l. c #BC902A",
"z. c #AF8431",
"x. c #DCC248",
"c. c black",
"v. c black",
"b. c black",
"n. c black",
"m. c black",
"M. c black",
"N. c black",
"B. c black",
"V. c black",
"C. c black",
"Z. c black",
"A. c black",
"S. c black",
"D. c black",
"F. c black",
"G. c black",
"H. c black",
"J. c black",
"K. c black",
"L. c black",
"P. c black",
"I. c black",
"U. c black",
"Y. c black",
"T. c black",
"R. c black",
"E. c black",
"W. c black",
"Q. c #819D9F",
"!. c #A7988E",
"~. c #B39889",
"^. c #A9A991",
"/. c #CB8989",
"(. c #FD8585",
"). c #FD8C8B",
"_. c #FF9487",
"`. c #F19D9D",
"'. c #F89998",
"]. c #C9A68C",
"[. c #C4A898",
"{. c #D5B198",
"}. c #F4B09B",
"|. c #F2A3A2",
" X c #FFA3A3",
".X c #FCABAB",
"XX c #FFB4A1",
"oX c #FCB4B3",
"OX c #FDBFB6",
"+X c #EBC694",
"@X c #E7D699",
"#X c #F4CDAD",
"$X c #FFC3BA",
"%X c #FFD4BD",
"&X c #F7F1BE",
"*X c #FFC3C2",
"=X c #FECAC3",
"-X c #FEDAC7",
";X c #FFDFD0",
":X c #F0E0C9",
">X c #FAF5C4",
",X c #FFE5D3",
"<X c #FFECD4",
"1X c #FFE8D9",
"2X c #FFF4D6",
"3X c #FFFED7",
"4X c #FFFED9",
"5X c #FBE4E4",
"6X c #FBFBE5",
"7X c gray96",
"8X c #FFFFFD",
/* pixels */
"U.U.U.U.U.U.U.U.U.U.U.U.U.U.U.U.U.U.Y.D.S Z 2.b.U.U.U.U.U.U.U.m.1.A Z R.A.Y.A.U.U.U.U.U.U.U.U.U.U.U.U.U.U.U.Y.",
"U.U.U.U.U.U.U.U.U.U.U.U.U.U.U.Y.R.R.F.6.m x Z M n.n.R.U.R.F.S.v Z x m r.U m.G U.U.U.U.U.U.U.U.U.U.U.U.U.U.U.Y.",
"U.U.U.U.U.U.U.U.U.U.U.Y.n.J.U.G.8.6.6.6.C c _ Z 1.4.0.F.8.4.1.Z _ c _ w.Y T G K.U.F.J.U.U.U.U.U.U.U.U.U.U.U.Y.",
"U.U.U.U.U.U.U.U.U.U.U.P.C S Z.:.w.=.` ` K T ] C ` ` =.w.=.` _ C ] T T ~ ~ ~ R +.Z.C A U.U.U.U.U.U.U.U.U.U.U.Y.",
"U.U.U.U.U.U.U.U.U.U.U.S.L U @.#.( &.] { ] ~ ~ ] { { &.( &.{ { ~ ~ ~ ~ { ~ { ! #./ U C n.U.U.U.U.U.U.U.U.U.U.Y.",
"U.U.U.U.U.U.U.U.Y.W.F.N.3.~ ~ ] #.$.{ y.{ ~ ] { t.-.$.( $.t. .{ ] ] { y.{ | { ~ ] ] 2.M.R.W.U.U.U.U.U.U.U.U.Y.",
"U.U.U.U.U.U.U.U.D.4.5.S.3.~ ~ ] $.-.| u.y.| | y. .| ( ) ] | t.y.| | y.u.| {  .~ ~ ] <.S.4.5.J.U.U.U.U.U.U.U.Y.",
"U.U.U.U.U.U.U.I.4.b b V C E Q ~ } >.{ y.g.j.j.d.t.{ } ;.{ } y.d.j.j.d.t.{ t. .~ Q E V V b b 5.U.U.U.U.U.U.U.Y.",
"U.U.U.U.U.U.U.D.C F H H K F Q Q t.y.u.f.(. X Xk.f.u.y.t.y.u.f.k.|. Xk.f.u.y. .Q Q F K H H F A J.U.U.U.U.U.U.Y.",
"U.U.U.U.U.R.D.4.D H P P Q H [ Y t.f.).|. X*X*X'.`.(.d.t.d.).`. X*XOX'.`.).d. .Y [ H W P J F D 5.R.J.U.U.U.U.Y.",
"U.U.U.U.F.6.1.N.F J H J I T T W t.k..X=X1X5X5X1X*X Xj.y.k. X=X1X5X5X,X%X.Xk. .T T Y I J J J G N.1.7.W.U.U.U.Y.",
"U.U.U.D.4.V B m.H U P P I ~ { } y.).OX<X4X7X8X3X;X.Xj.y.(.oX1X4X6X6X3X,XoXk.y.[ { ~ I P P U G m.b S 5.J.U.U.Y.",
"U.U.I.4.B D J P U ~ T T ! | d.u.h.`.OX2X4X8X8X4X,X$X(.j.).$X,X4X6X4X4X2XoX'.f.u.i.| W T T ~ U P H D N 5.U.U.Y.",
"U.Y.F.2.M F P I Q ~ ~ ] t.d.).).`..X-X1X6X8X8X4X<X;Xq./..X-X2X4X8X8X3X,X%X X`.).).i. .~ ~ ~ Q I H F M 5.W.U.Y.",
"U.I.a.8.3.H P W T Q ~ ~ t.g.)..X$X%X{.{.#X>X>X@X@X:X1 h =X{.@X@X&X&X@X+X-X=XOX.X(.d. .~ ~ T T W I H 2.r.q.U.Y.",
"U.I.V.r.r.U T { Q Y ~ ] y.)..XOX].].X.O.l.x.x.l.O.^.; f !.X.O.l.x.x.l.O.[.{.-XOX X(.y.~ ~ Y Q { T E 8.0.C.U.Y.",
"U.U.I.r.r.~ ~ T T T ( ( d.|.$X~.0 q w X.O.z.z.o.q : # i & q X.O.z.z.o.q q q ].=X$X`.i.( ~ T T T ~ ] 8.0.U.U.Y.",
"U.U.I.r.=.~ ~ ~ ( { {  .g.`.~.< 5 5 0 q w w w q 7 :   . - 0 q w w w e e e 7 6 [.%X'.d.| { { ~ ~ ~ [ e.0.U.U.Y.",
"E.W.F.r.&.~ ~ ~ { y.u.g._.#X9 * 4 4 - - 6 , 6 6 6 :     - 4 4 4 , 6 i f g 3 ; a %X#X_.d.u.t.{ ~ ~ ] &.0.R.R.E.",
"a.a.r.=.*.{ ~ ~ t.g.k._.}.~.< * % + % O $ ; 3 1 < :     = = = % $ : 1 i g r : 3 [.%XXX(.k.d. .] ] } *.e.r.a.s.",
"a.r.p.%.*.-.~ ~ t.j.k.).}.r * O .   X # $ : 1 3 1 :     = * #   # ; : 9 f a 1 ; a %XXX).k.g.| ] ] ;.*.%.s.8.s.",
"Q.V.9.@.@.&.W Q { y.i.i.q., = X     X # $ : 1 3 1 ;     * * O .   $ : 3 a i 1 ; , [.k.u.i.t.[ Q ! &.@.@.9.V.Q.",
"U.I.9.@.c ^ P I T ~ ( ' 9 * % X     # # ; : 1 1 1 ;     * * + o   $ ; 1 3 i 3 ; $ p { { ~ ~ T I P ^ c ..9.U.Y.",
"U.I.N.1.n F P P W Q { 3.< * O X   X # # ; ; 1 3 1 ;   . * = + o   $ : : 1 3 3 1 $ < m [ { Q W P J F v 5.C.U.Y.",
"U.U.Y.N.1.n H <.P T ' 9 = * X     X # $ ; : 1 3 1 ; X X * * + o   # ; ; : 3 3 9 ; $ p W [ Y K <.F m 2.B.U.U.Y.",
"U.U.U.I.8.1.z I.,.E v , * O X     X # $ ; ; 3 1 1 ; X X * * + +     $ ; : 1 3 9 1 $ 2 ` Y E z I.,.2.0.U.U.U.Y.",
"U.U.U.I.V.C.U.Y.D.H 3 * % X X   . X # $ : : 3 1 1 ; X X * * + +     $ ; : 1 1 3 3 ; $ 8 I G W.U.Y.V.C.U.U.U.Y.",
"U.U.U.U.U.U.U.I.N.x , * O X X   X # $ $ ; : 1 1 1 ; X X * * + + .   $ ; : : 1 1 i ; $ > n _ B.U.U.U.U.U.U.U.Y.",
"U.U.U.U.U.U.U.U.P.: * % X X X   X # $ $ ; 1 : 1 : $ X X * * + + o   # $ : : 1 1 9 3 ; # 3 0.U.U.U.U.U.U.U.U.Y.",
"U.U.U.U.U.U.U.U.c.= = O X X     X # $ $ : : 1 1 : $ X X * * % + o     $ : : : 1 3 a ; # > ,.U.U.U.U.U.U.U.U.Y.",
"U.U.U.U.U.U.U.P.3 = @ X # X   . X # $ $ : : : 1 : $ X X * * + + o     $ ; : : 1 9 i : $ $ r U.U.U.U.U.U.U.U.Y.",
"U.U.U.U.U.U.U.c.< = O X # .   X X # $ $ ; 1 : > : $ X X * * + + O     $ ; ; 1 : 3 i 3 ; $ r H.U.U.U.U.U.U.U.Y.",
"U.U.U.U.U.U.P.9 * * X # #     X X $ $ $ : : : : : # X X * * + + O X   O $ : : : 3 a a ; # $ u U.U.U.U.U.U.U.Y.",
"U.U.U.U.U.Y.c., * O X # X     X X $ $ $ : : 1 : 1 $ X X * * + + % X     $ ; : 1 1 i a : $   r v.U.U.U.U.U.U.Y.",
"U.U.U.U.U.P.3 = % X # # X     X X $ $ $ ; 1 : : : $ X X * * % + O X     $ $ : 1 1 3 i 9 ; X # r U.U.U.U.U.U.Y.",
"U.U.U.U.U.c.< = O O # # X   X X X $ $ $ : : : 1 : $ X X * * + + + X     $ $ ; : 1 3 i a : #   r v.U.U.U.U.U.Y.",
"T.T.T.T.L.k f f y s d s t t y y y d d d j k k k k s y y f f a d a y t t d d j k l l z z l d r j l T.T.T.T.T.T."
};
